<svg width="24" height="24" viewBox="0 0 24 24" fill="none" xmlns="http://www.w3.org/2000/svg">
<rect width="24" height="24" rx="12" fill="#CACACA"/>
<path d="M9.35779 13.1741C8.95093 13.1618 8.54407 13.1478 8.13721 13.1371C7.97145 13.133 7.80569 13.1363 7.59473 13.1363C7.85001 12.44 8.08668 11.7873 8.3269 11.1363C9.01032 9.28507 9.69817 7.4355 10.3727 5.58182C10.4428 5.38865 10.5367 5.33111 10.7503 5.33357C11.6678 5.34426 12.5843 5.34261 13.5009 5.33439C13.6941 5.33275 13.7951 5.36892 13.8652 5.56045C14.7897 8.10546 15.7266 10.6464 16.6609 13.1881C17.2645 14.8305 17.8691 16.4721 18.4736 18.1145C18.5339 18.2797 18.5915 18.445 18.6668 18.6595C18.0791 18.6595 17.5269 18.6677 16.9765 18.6488C16.9064 18.6464 16.8134 18.5074 16.7797 18.4162C16.3338 17.2218 15.8897 16.0257 15.4634 14.8247C15.3916 14.6217 15.2985 14.5568 15.0689 14.5576C13.1259 14.5666 11.1829 14.5625 9.23901 14.5625C9.11048 14.5625 8.98284 14.5625 8.79758 14.5625C8.99082 14.0726 9.16899 13.6188 9.34804 13.1651C9.46504 13.1544 9.58294 13.1338 9.69994 13.1338C11.2627 13.1322 12.8263 13.133 14.389 13.133C14.5229 13.133 14.6567 13.133 14.826 13.133C14.7764 12.976 14.7471 12.8708 14.709 12.768C14.038 10.9349 13.3679 9.10094 12.6951 7.26863C12.5116 6.76966 12.5072 6.78035 11.9408 6.77295C11.7369 6.77048 11.6465 6.83049 11.5818 7.01216C11.1528 8.21068 10.7042 9.40344 10.2699 10.6011C9.95877 11.4569 9.66094 12.3159 9.35779 13.1741Z" fill="#060634"/>
<path d="M7.06505 14.5591C6.46672 14.5591 5.92247 14.5591 5.33301 14.5591C5.50586 14.0963 5.66009 13.6697 5.82851 13.2472C5.8489 13.1962 5.94286 13.1395 6.00313 13.1387C6.50927 13.1296 7.01629 13.1337 7.58714 13.1337C7.41252 13.6196 7.25297 14.0667 7.07834 14.5517C7.65362 14.5517 8.19522 14.5517 8.79886 14.5517C8.68008 14.8896 8.57992 15.1839 8.47266 15.4749C8.11012 16.4621 7.7396 17.4469 7.38415 18.4367C7.32388 18.6044 7.2441 18.6709 7.04998 18.666C6.57309 18.6537 6.09532 18.6619 5.55638 18.6619C6.06075 17.2899 6.55182 15.9533 7.06505 14.5591Z" fill="#060634"/>
</svg>
