<svg width="96" height="129" viewBox="0 0 96 129" fill="none" xmlns="http://www.w3.org/2000/svg">
<path d="M58.5237 72.2102L81.169 54.4709L84.7044 23.5878L58.5237 9.17503L47.8958 23.7808C53.396 26.5424 57.3022 32.0554 57.7719 38.4873C58.3612 46.5777 53.4554 54.1101 45.8373 56.8018C35.7146 60.3838 28.9116 70.0469 28.9116 80.8497V85.4907C28.9116 91.5358 33.8121 96.4363 39.8545 96.4363H55.8613L58.5237 72.2102Z" fill="#FE9738"/>
<path d="M26.9504 50.7996H10.9443C4.89999 50.7996 0 45.8996 0 39.8553C0 38.0024 0.129253 36.137 0.383977 34.3108C3.25146 13.7602 21.7584 -1.27559 42.5169 0.0869764H58.5257L47.1369 11.5864" fill="#FE9738"/>
<path d="M55.8618 107.02H39.8555C33.8111 107.02 28.9111 111.92 28.9111 117.965V118.055C28.9111 124.1 33.8111 129 39.8555 129H53.9152" fill="#FE9738"/>
<path d="M55.8618 96.4353C49.8175 96.4353 44.9175 91.5353 44.9175 85.491V80.8487C44.9175 70.046 51.72 60.3831 61.845 56.8033C69.4607 54.1104 74.3683 46.5788 73.7785 38.4881C73.1325 29.6286 65.9596 22.5099 57.0936 21.9294C47.7157 21.3099 39.3606 28.0827 38.0694 37.3359C37.954 38.1631 37.8955 39.0109 37.8955 39.8557C37.8955 45.9 32.9955 50.8 26.9512 50.8C20.9068 50.8 16.0068 45.9 16.0068 39.8557C16.0068 38.0028 16.1361 36.1373 16.3908 34.3112C19.2583 13.7604 37.765 -1.27545 58.5237 0.0871138C78.2305 1.37762 94.1741 17.2023 95.6097 36.8965C96.9143 54.7963 86.0304 71.4683 69.1418 77.4401C67.7449 77.9339 66.8064 79.3037 66.8064 80.8487V85.491C66.8064 91.5353 61.9064 96.4353 55.8618 96.4353Z" fill="#FFD15B"/>
<path d="M55.8618 129C49.8175 129 44.9175 124.1 44.9175 118.056V117.965C44.9175 111.921 49.8175 107.021 55.8618 107.021C61.9062 107.021 66.8062 111.921 66.8062 117.965V118.056C66.8064 124.1 61.9064 129 55.8618 129Z" fill="#FFD15B"/>
<path d="M26.0651 34.3119C25.8081 36.1378 25.6824 38.0018 25.6824 39.8551C25.6824 44.1628 28.1696 47.8909 31.7885 49.6733C30.3289 50.3948 28.6889 50.7995 26.9504 50.7995C20.9099 50.7995 16.0063 45.9015 16.0063 39.8554C16.0063 38.0023 16.1376 36.1381 16.3944 34.3122C19.2591 13.7576 37.7691 -1.27573 58.5257 0.0855701C59.2693 0.134701 60.0072 0.205752 60.7397 0.298723C43.1647 2.46351 28.5851 16.2612 26.0651 34.3119Z" fill="#FFC344"/>
<path d="M71.5204 56.8015C61.3962 60.382 54.5904 70.0472 54.5904 80.8492V85.4904C54.5904 89.7981 57.0832 93.5265 60.702 95.3086C59.2425 96.0302 57.6025 96.4348 55.864 96.4348C49.8179 96.4348 44.9199 91.5366 44.9199 85.4907V80.8492C44.9199 70.0472 51.7204 60.3823 61.8499 56.8015C69.465 54.1064 74.3685 46.579 73.7782 38.4883C73.2261 30.8788 67.8578 24.5538 60.7348 22.5585C62.6537 22.0173 64.6872 21.7931 66.7698 21.9299C75.6368 22.5094 82.8089 29.6268 83.4539 38.4883C84.0442 46.579 79.1352 54.1066 71.5204 56.8015Z" fill="#FFC344"/>
<path d="M60.7015 127.873C59.242 128.595 57.602 128.999 55.8635 128.999C49.8174 128.999 44.9194 124.101 44.9194 118.055V117.962C44.9194 111.922 49.8174 107.018 55.8635 107.018C57.602 107.018 59.242 107.423 60.7015 108.144C57.0827 109.932 54.5899 113.66 54.5899 117.962V118.055C54.5899 122.363 57.0827 126.091 60.7015 127.873Z" fill="#FFC344"/>
</svg>
