<svg width="58" height="59" viewBox="0 0 58 59" fill="none" xmlns="http://www.w3.org/2000/svg">
<g opacity="0.6" clip-path="url(#clip0_603_10257)">
<path d="M47.2666 17.5798L30.3379 51.0721C29.9823 51.776 29.1173 52.0654 28.4097 51.717L24.709 49.8962C24.1121 49.6025 23.7229 49.014 23.6667 48.3562C23.5441 46.882 22.6785 45.5083 21.2546 44.8077C19.8306 44.1071 18.1957 44.2452 16.9286 45.0355C16.3643 45.3933 15.6535 45.4408 15.0567 45.1471L11.3561 43.3262C10.6484 42.9781 10.3558 42.1245 10.7159 41.412L27.6401 7.92833C27.9958 7.22453 28.8672 6.93307 29.575 7.28117L33.2755 9.10207C33.8723 9.39573 34.2616 9.98438 34.3113 10.6443C34.434 12.1185 35.2974 13.4858 36.7298 14.1906C38.1603 14.8891 39.7887 14.7531 41.0474 13.9588C41.6203 13.6051 42.3309 13.5575 42.9278 13.8512L46.6263 15.6657C47.334 16.014 47.6223 16.8759 47.2666 17.5798Z" fill="#5F089B"/>
<path d="M36.7267 14.1877C38.1591 14.8925 39.7864 14.7507 41.0493 13.9587C41.617 13.605 42.3286 13.5541 42.9287 13.8494L46.6263 15.6688C47.3341 16.017 47.6183 16.8814 47.2653 17.5796L45.7793 20.5197C46.1351 19.8157 45.8481 18.9571 45.1403 18.6088L41.4426 16.7895C40.8425 16.4942 40.1338 16.5394 39.5662 16.893C38.3032 17.6851 36.6759 17.8269 35.2435 17.1221C33.8165 16.42 32.9522 15.0523 32.8279 13.5775C32.7728 12.9175 32.3887 12.3347 31.7884 12.0393L28.0909 10.22C27.3831 9.87177 26.5152 10.1621 26.1593 10.8661L27.6454 7.92601C27.9983 7.22778 28.8691 6.9317 29.5769 7.27996L33.2745 9.09925C33.8747 9.39458 34.256 9.9831 34.3111 10.6432C34.4354 12.1178 35.2997 13.4856 36.7267 14.1877Z" fill="#140420"/>
<path d="M38.1449 29.6656L30.7672 44.2617C30.3707 45.0568 29.4033 45.3803 28.6082 44.9839L16.6815 39.1208C15.8885 38.7307 15.5684 37.7736 15.9649 36.9784L23.3424 22.3823C23.741 21.5936 24.7149 21.2679 25.5078 21.658L37.4305 27.5295C38.2299 27.9177 38.55 28.8747 38.1449 29.6656Z" fill="#E5E8EF"/>
<path d="M25.5062 21.6567L37.431 27.5241C38.2295 27.9169 38.5504 28.8767 38.149 29.6707L30.7732 44.2634C30.5654 44.6746 30.1992 44.9657 29.7852 45.0854L24.2451 21.5918C24.645 21.444 25.0986 21.4561 25.5062 21.6567Z" fill="#CDD4DF"/>
<path d="M24.7305 13.6935L25.3137 13.9804C25.7837 14.2117 25.9695 14.7813 25.736 15.2431C25.4998 15.7105 24.9297 15.9013 24.4597 15.6701L23.8764 15.3831L24.7305 13.6935Z" fill="#36015B" fill-opacity="0.4"/>
<path d="M37.2195 20.8929C36.9832 21.3603 37.1718 21.9244 37.6418 22.1557L40.2747 23.4511C40.7448 23.6824 41.3149 23.4916 41.5511 23.0242C41.7846 22.5624 41.5988 21.9928 41.1288 21.7615L38.4958 20.466C38.0258 20.2348 37.4529 20.4311 37.2195 20.8929ZM31.9478 18.2991C31.7116 18.7665 31.9001 19.3306 32.3701 19.5618L35.0031 20.8573C35.4731 21.0886 36.0432 20.8978 36.2794 20.4304C36.5129 19.9685 36.3271 19.399 35.8571 19.1677L33.2241 17.8722C32.7541 17.641 32.1812 17.8373 31.9478 18.2991ZM26.6761 15.7053C26.4399 16.1727 26.6286 16.7368 27.0985 16.968L29.7315 18.2636C30.2014 18.4948 30.7717 18.304 31.0079 17.8367C31.2413 17.3748 31.0554 16.8051 30.5855 16.5739L27.9525 15.2784C27.4826 15.0472 26.9096 15.2434 26.6761 15.7053Z" fill="#36015B" fill-opacity="0.4"/>
<path d="M43.7669 23.0596L44.3502 23.3466L43.4962 25.0362L42.9129 24.7493C42.443 24.5181 42.2543 23.9539 42.4906 23.4866C42.724 23.0247 43.297 22.8285 43.7669 23.0596Z" fill="#36015B" fill-opacity="0.4"/>
<path d="M21.558 32.9116L19.2125 37.5521C19.0553 37.8631 18.6743 37.9905 18.3616 37.8367C18.0489 37.6828 17.9228 37.3059 18.08 36.9948L20.4255 32.3544C20.5827 32.0434 20.9637 31.916 21.2764 32.0698C21.5891 32.2237 21.7152 32.6006 21.558 32.9116Z" fill="#CDD4DF"/>
<path d="M22.6436 36.3434L21.4709 38.6637C21.3137 38.9747 20.9327 39.1021 20.62 38.9483C20.3073 38.7944 20.1812 38.4175 20.3384 38.1065L21.5112 35.7862C21.6684 35.4752 22.0494 35.3478 22.3621 35.5016C22.6748 35.6555 22.8008 36.0324 22.6436 36.3434Z" fill="#CDD4DF"/>
<path d="M29.511 30.8142C29.5899 31.0498 29.768 31.2289 30.0088 31.2982L31.9972 31.8826C32.5863 32.06 32.7121 32.8322 32.2125 33.1912L30.5206 34.3983C30.3219 34.5397 30.2024 34.7762 30.2075 35.0177L30.2483 37.0774C30.2582 37.6872 29.5574 38.0525 29.0594 37.695L27.834 36.8038L27.3899 36.4797C27.1889 36.3315 26.9368 36.299 26.6985 36.3787L24.7328 37.0642C24.1485 37.269 23.5858 36.7178 23.7854 36.1409L24.4445 34.1795C24.5186 33.9488 24.4795 33.6904 24.3298 33.4972L23.0778 31.8613C22.6991 31.3797 23.0578 30.67 23.6755 30.6787L25.7531 30.6812C25.977 30.6857 26.1842 30.5839 26.3262 30.4146C26.3489 30.3976 26.3575 30.3807 26.3745 30.3609L27.5658 28.6614C27.9128 28.157 28.6976 28.269 28.8833 28.8526L29.511 30.8142Z" fill="#FFD80C"/>
<path d="M29.5108 30.8143C29.5897 31.0499 29.7678 31.229 30.0086 31.2982L31.997 31.8827C32.5861 32.06 32.7119 32.8323 32.2124 33.1912L30.5204 34.3983C30.3217 34.5397 30.2022 34.7762 30.2073 35.0178L30.2481 37.0774C30.258 37.6872 29.5572 38.0525 29.0592 37.695L27.8338 36.8038L26.326 30.4146C26.3487 30.3976 26.3573 30.3807 26.3744 30.361L27.5656 28.6615C27.9126 28.1571 28.6974 28.269 28.8831 28.8526L29.5108 30.8143Z" fill="#FFBE00"/>
</g>
<defs>
<clipPath id="clip0_603_10257">
<rect width="45.9383" height="45.4474" fill="white" transform="translate(0 15.2356) rotate(-18.4937)"/>
</clipPath>
</defs>
</svg>
