<svg width="118" height="118" viewBox="0 0 118 118" fill="none" xmlns="http://www.w3.org/2000/svg">
<g clip-path="url(#clip0_1169_9276)">
<path d="M12.3743 10.5197L14.9249 13.2773C15.1183 13.4863 15.402 13.5868 15.6836 13.546L19.4011 13.0081C20.1105 12.9055 20.6297 13.6608 20.2796 14.2865L18.4453 17.564C18.3064 17.8125 18.2985 18.1132 18.4244 18.3686L20.0847 21.738C20.4015 22.381 19.8436 23.1082 19.1404 22.9687L15.4561 22.2372C15.177 22.1817 14.8883 22.2672 14.6843 22.4658L11.9929 25.086C11.4792 25.5862 10.6152 25.2801 10.5308 24.5684L10.0881 20.8383C10.0544 20.5557 9.8841 20.3075 9.6322 20.175L6.30861 18.425C5.67436 18.0911 5.69833 17.1747 6.34917 16.8744L9.75988 15.3008C10.0182 15.1817 10.2017 14.9427 10.2499 14.6622L10.8871 10.9604C11.0086 10.2538 11.8876 9.99357 12.3743 10.5197Z" fill="#ECD96F"/>
<path d="M106.017 10.2784L103.467 13.0359C103.273 13.245 102.99 13.3455 102.708 13.3047L98.9906 12.7667C98.2812 12.6642 97.762 13.4194 98.1121 14.0452L99.9464 17.3231C100.085 17.5716 100.093 17.8723 99.9673 18.1277L98.307 21.4971C97.9901 22.1401 98.5481 22.8673 99.2513 22.7278L102.936 21.9963C103.215 21.9408 103.503 22.0263 103.707 22.225L106.399 24.8452C106.913 25.3453 107.777 25.0392 107.861 24.3275L108.304 20.5974C108.337 20.3148 108.508 20.0666 108.759 19.9341L112.083 18.1841C112.717 17.8502 112.693 16.9339 112.043 16.6335L108.632 15.0599C108.373 14.9408 108.19 14.7018 108.142 14.4213L107.505 10.7195C107.383 10.0124 106.504 9.75221 106.017 10.2784Z" fill="#ECD96F"/>
<path d="M100.6 62.8682C101.522 62.8682 102.3 62.1606 102.374 61.2275C102.45 60.2468 101.719 59.3899 100.738 59.3116C99.7574 59.2355 98.9003 59.9693 98.8244 60.9474C98.7424 61.9737 99.5758 62.8682 100.6 62.8682Z" fill="#FFE07D"/>
<path d="M17.9256 62.953C18.8468 62.953 19.6256 62.2455 19.6991 61.3123C19.7751 60.3316 19.0439 59.4748 18.0632 59.3964C17.0826 59.3204 16.2254 60.0542 16.1496 61.0323C16.0676 62.0586 16.901 62.953 17.9256 62.953Z" fill="#FFE07D"/>
<path d="M30.9388 27.7692C31.3709 27.7692 31.803 27.6125 32.1448 27.2968C32.8689 26.6296 32.9141 25.5042 32.2469 24.78C31.5797 24.0584 30.452 24.0133 29.7302 24.6802C29.0084 25.3472 28.9609 26.4728 29.6281 27.197C29.9796 27.5768 30.4592 27.7692 30.9388 27.7692Z" fill="#FFE07D"/>
<path d="M51.4949 17.4057C52.5917 17.4057 53.4536 16.3804 53.2448 15.2903C53.0597 14.3239 52.1289 13.6899 51.1625 13.8752C50.1962 14.0603 49.5624 14.9934 49.7474 15.9598C49.9111 16.8121 50.6566 17.4057 51.4949 17.4057Z" fill="#FFE07D"/>
<path d="M44.0398 19.5638C45.2661 19.5638 46.1488 18.2874 45.6971 17.1325C45.3387 16.2162 44.3035 15.7649 43.3894 16.1259C42.4728 16.4842 42.0218 17.5172 42.3827 18.4335C42.6581 19.1339 43.33 19.5638 44.0398 19.5638Z" fill="#FFE07D"/>
<path d="M37.1071 23.0538C37.43 23.0538 37.7552 22.9659 38.0497 22.7832C38.8831 22.2607 39.137 21.1616 38.6148 20.3282C38.0926 19.4949 36.9932 19.2409 36.1598 19.7631C35.3265 20.2856 35.0748 21.3847 35.5947 22.2181C35.9342 22.7569 36.5136 23.0538 37.1071 23.0538Z" fill="#FFE07D"/>
<path d="M59.2226 16.6696C60.2079 16.6696 61.0055 15.8717 61.0055 14.889C61.0055 13.9037 60.2079 13.1084 59.2249 13.1084C59.2249 13.1058 59.2249 13.1058 59.2249 13.1058C58.2397 13.1058 57.4443 13.9037 57.4443 14.889C57.4443 15.8717 58.2397 16.6696 59.2226 16.6696Z" fill="#FFE07D"/>
<path d="M66.6211 17.3651C67.57 17.5435 68.5223 16.9067 68.7034 15.9477C68.8862 14.9813 68.2501 14.0484 67.286 13.8654C66.3197 13.6826 65.3867 14.319 65.2037 15.2828C65.021 16.2494 65.655 17.1823 66.6211 17.3651Z" fill="#FFE07D"/>
<path d="M99.8818 47.3945C100.832 47.1357 101.392 46.1576 101.133 45.2078V45.2104C100.877 44.2606 99.8984 43.7003 98.9486 43.9566C97.9989 44.2154 97.4386 45.1935 97.6974 46.1433C97.9364 47.0179 99.0113 47.6321 99.8818 47.3945Z" fill="#FFE07D"/>
<path d="M73.7654 19.4165C74.62 19.7491 75.7355 19.27 76.0731 18.4052C76.4317 17.4912 75.9782 16.4582 75.0618 16.0999C74.1455 15.7413 73.1125 16.1948 72.7564 17.1112C72.3978 18.0275 72.8491 19.0605 73.7654 19.4165Z" fill="#FFE07D"/>
<path d="M80.4039 22.7569C81.2034 23.26 82.3587 22.9885 82.8588 22.1943C83.3813 21.3609 83.1296 20.2639 82.296 19.7394C81.4626 19.2171 80.3635 19.4688 79.841 20.3022C79.3188 21.1355 79.5705 22.2346 80.4039 22.7569Z" fill="#FFE07D"/>
<path d="M86.2964 27.2801C87.0125 27.9415 88.1752 27.8728 88.8132 27.1874C89.4827 26.4656 89.44 25.3379 88.7205 24.6707C87.9987 24.0012 86.8733 24.0415 86.204 24.7634C85.5343 25.4827 85.5769 26.6106 86.2964 27.2801Z" fill="#FFE07D"/>
<path d="M96.6956 40.1889C96.9568 40.1889 97.2204 40.1319 97.4695 40.0107C98.3552 39.5809 98.7256 38.5173 98.2983 37.6318C97.8685 36.7461 96.8026 36.3758 95.9194 36.8056C95.0337 37.2329 94.6634 38.299 95.0932 39.1845C95.3992 39.8185 96.0356 40.1889 96.6956 40.1889Z" fill="#FFE07D"/>
<path d="M24.6921 33.1944C25.4615 33.7646 26.6249 33.5752 27.1851 32.8215C27.7691 32.0333 27.603 30.9174 26.8122 30.3334C26.0215 29.7471 24.9058 29.9133 24.3218 30.7038C23.7352 31.4943 23.9037 32.6102 24.6921 33.1944Z" fill="#FFE07D"/>
<path d="M102.517 53.1832C102.441 52.2026 101.584 51.469 100.604 51.5448C99.6229 51.6232 98.8893 52.478 98.9654 53.4584C99.0435 54.452 99.911 55.144 100.881 55.0968C101.862 55.0184 102.593 54.1636 102.517 53.1832Z" fill="#FFE07D"/>
<path d="M91.2494 32.8216C91.8081 33.578 92.968 33.7653 93.7376 33.1968C94.5306 32.6128 94.6965 31.4968 94.1125 30.7063C93.5285 29.9156 92.4126 29.7471 91.6221 30.3311C90.8314 30.9151 90.6629 32.0311 91.2469 32.8216H91.2494Z" fill="#FFE07D"/>
<path d="M20.7694 46.1575C21.0259 45.2078 20.4631 44.2297 19.5134 43.9734C18.5636 43.7169 17.5878 44.2797 17.3315 45.2294C17.075 46.1792 17.6378 47.1573 18.5876 47.4113C19.4576 47.6517 20.5337 47.0331 20.7694 46.1575Z" fill="#FFE07D"/>
<path d="M20.1429 37.6413C19.7179 38.5293 20.0906 39.5929 20.9763 40.0179C21.8113 40.4155 22.9477 40.0267 23.3529 39.1845C23.7779 38.2965 23.4052 37.2329 22.5195 36.808C21.6317 36.383 20.5679 36.7556 20.1429 37.6413Z" fill="#FFE07D"/>
<path d="M17.7284 55.1228C18.6495 55.1228 19.4283 54.4153 19.5018 53.4821C19.5779 52.5015 18.8466 51.6446 17.8659 51.5662C16.8853 51.4902 16.0282 52.224 15.9524 53.2021C15.8703 54.2284 16.7037 55.1228 17.7284 55.1228Z" fill="#FFE07D"/>
<path d="M59.2405 91.0181C78.294 91.0181 93.7399 75.5722 93.7399 56.5187C93.7399 37.4653 78.294 22.0194 59.2405 22.0194C40.1871 22.0194 24.7412 37.4653 24.7412 56.5187C24.7412 75.5722 40.1871 91.0181 59.2405 91.0181Z" fill="#EAF3F9"/>
<path d="M113.251 107.264H4.74858C2.12607 107.264 0 105.138 0 102.516V70.7486C0 68.1261 2.12607 66 4.74858 66H113.252C115.874 66 118 68.1261 118 70.7486V102.516C118 105.138 115.874 107.264 113.251 107.264Z" fill="#CD67CE"/>
<path d="M113.197 66H103.7C106.323 66 108.449 68.1261 108.449 70.7486V102.516C108.449 105.138 106.323 107.264 103.7 107.264H113.197C115.82 107.264 117.946 105.138 117.946 102.516V70.7486C117.946 68.1261 115.82 66 113.197 66Z" fill="#C460C5"/>
<path d="M56.4956 77.2797C56.4898 77.2797 56.4839 77.2797 56.4781 77.2799C55.4947 77.2893 54.7053 78.0944 54.7148 79.0778L54.8173 89.6789L46.8065 78.0787C46.3637 77.4373 45.5555 77.1587 44.8113 77.3905C44.0673 77.6226 43.5605 78.3112 43.5605 79.0905V95.1931C43.5605 96.1765 44.3577 96.9737 45.3411 96.9737C46.3246 96.9737 47.1218 96.1765 47.1218 95.1931V84.8029L54.7639 95.869C55.2965 96.6386 56.181 96.967 57.0178 96.7056C57.8738 96.4383 58.4267 95.6312 58.4267 94.6323L58.276 79.0432C58.2663 78.0656 57.4709 77.2797 56.4956 77.2797Z" fill="#060634"/>
<path d="M75.8091 77.2797C75.8033 77.2797 75.7973 77.2797 75.7916 77.2799C74.8082 77.2893 74.0186 78.0944 74.0283 79.0775L74.1308 89.6789L66.1199 78.0787C65.677 77.4373 64.8687 77.1587 64.1248 77.3905C63.3808 77.6226 62.874 78.3112 62.874 79.0905V95.1931C62.874 96.1765 63.6712 96.9737 64.6546 96.9737C65.638 96.9737 66.4352 96.1765 66.4352 95.1931V84.8029L74.0773 95.869C74.6102 96.6386 75.4947 96.967 76.3313 96.7056C77.1873 96.4383 77.7402 95.6312 77.7402 94.6326L77.5895 79.0434C77.58 78.0656 76.7847 77.2797 75.8091 77.2797Z" fill="#060634"/>
<path d="M36.5238 77.2797C35.5404 77.2797 34.7432 78.0769 34.7432 79.0603V95.1928C34.7432 96.1763 35.5404 96.9734 36.5238 96.9734C37.5072 96.9734 38.3044 96.1763 38.3044 95.1928V79.0603C38.3046 78.0769 37.5072 77.2797 36.5238 77.2797Z" fill="#060634"/>
<path d="M90.7033 80.9883C91.6867 80.9883 92.4839 80.1911 92.4839 79.2077C92.4839 78.2243 91.6867 77.4271 90.7033 77.4271H83.9676C82.9842 77.4271 82.187 78.2243 82.187 79.2077V95.193C82.187 96.1765 82.9842 96.9736 83.9676 96.9736H90.7033C91.6867 96.9736 92.4839 96.1765 92.4839 95.193C92.4839 94.2096 91.6867 93.4124 90.7033 93.4124H85.7482V88.9812H90.2066C91.19 88.9812 91.9872 88.184 91.9872 87.2006C91.9872 86.2172 91.19 85.42 90.2066 85.42H85.7482V80.9888H90.7033V80.9883Z" fill="#060634"/>
<path d="M28.7386 77.3435C27.7741 77.1515 26.8366 77.7779 26.6446 78.7424L24.5932 89.0508L21.3539 78.5361C21.0645 77.5963 20.0677 77.0692 19.1281 77.3587C18.4825 77.5576 18.0317 78.0897 17.9066 78.7083L14.7049 89.052L12.6602 78.715C12.4696 77.7502 11.5337 77.1227 10.5678 77.3137C9.60302 77.5046 8.97568 78.4414 9.16651 79.4062L12.3096 95.2967C12.3265 95.3818 12.3495 95.4655 12.3786 95.5475C12.6823 96.4023 13.4933 96.9741 14.3995 96.9741H14.4141C15.3262 96.9679 16.1363 96.3836 16.4302 95.5201C16.4355 95.5044 16.4406 95.4887 16.4454 95.4731L19.6528 85.1107L22.846 95.4754C22.8534 95.4996 22.8612 95.5235 22.8697 95.5473C23.1735 96.4021 23.9845 96.9739 24.8907 96.9739H24.9052C25.8174 96.9676 26.6275 96.3834 26.9214 95.5198C26.9465 95.4461 26.9668 95.3705 26.982 95.294L30.1378 79.4377C30.3293 78.473 29.7031 77.5354 28.7386 77.3435Z" fill="#060634"/>
<path d="M104.07 89.0704C106.816 88.4535 108.867 86.0794 108.867 83.2532C108.867 79.9593 106.081 77.2797 102.657 77.2797H98.3697C98.3687 77.2797 98.3678 77.2797 98.3671 77.2797C98.3662 77.2797 98.3655 77.2797 98.3646 77.2797C97.3812 77.2797 96.584 78.0769 96.584 79.0603V95.1928C96.584 96.1763 97.3812 96.9734 98.3646 96.9734C99.348 96.9734 100.145 96.1763 100.145 95.1928V90.0011L105.75 96.3692C106.102 96.769 106.593 96.9734 107.087 96.9734C107.505 96.9734 107.925 96.8273 108.263 96.5293C109.001 95.8796 109.073 94.7545 108.423 94.0163L104.07 89.0704ZM102.656 80.8411C104.092 80.8411 105.306 81.9457 105.306 83.2532C105.306 84.5606 104.092 85.6653 102.656 85.6653C102.08 85.6653 101.065 85.6696 100.17 85.674C100.165 84.7971 100.161 83.8105 100.161 83.2532C100.161 82.7812 100.158 81.7591 100.155 80.8411H102.656Z" fill="#060634"/>
<path d="M77.3765 69.9097H40.6237L36.2925 44.9949L48.8883 54.1848L59.0001 31.8973L69.1119 54.1848L81.7077 44.9949L77.3765 69.9097Z" fill="#FFC250"/>
<path d="M70.831 52.9304L67.8794 69.9097H77.3763L81.7075 44.9949L70.831 52.9304Z" fill="#EBB044"/>
<path d="M40.6238 69.9097L39.0933 61.1046H78.9072L77.3767 69.9097H40.6238Z" fill="#FFE07D"/>
<path d="M69.4099 61.1046L67.8794 69.9097H77.3763L78.9069 61.1046H69.4099Z" fill="#FFD064"/>
</g>
<defs>
<clipPath id="clip0_1169_9276">
<rect width="118" height="118" fill="white"/>
</clipPath>
</defs>
</svg>
