<svg width="24" height="24" viewBox="0 0 24 24" fill="none" xmlns="http://www.w3.org/2000/svg">
<path d="M8.82923 13.409C8.341 13.3942 7.85276 13.3774 7.36453 13.3646C7.16562 13.3597 6.96671 13.3636 6.71355 13.3636C7.0199 12.5281 7.3039 11.7449 7.59216 10.9636C8.41226 8.74217 9.23769 6.52268 10.0472 4.29827C10.1312 4.06646 10.2439 3.99741 10.5003 4.00037C11.6012 4.01319 12.7011 4.01122 13.8009 4.00135C14.0328 3.99938 14.1541 4.04278 14.2381 4.27262C15.3475 7.32663 16.4718 10.3757 17.593 13.4258C18.3173 15.3967 19.0428 17.3666 19.7682 19.3375C19.8405 19.5358 19.9097 19.734 20.0001 19.9915C19.2949 19.9915 18.6322 20.0014 17.9716 19.9787C17.8876 19.9757 17.7759 19.809 17.7355 19.6995C17.2005 18.2662 16.6675 16.8309 16.1559 15.3898C16.0698 15.1461 15.9581 15.0682 15.6826 15.0692C13.351 15.08 11.0194 15.0751 8.6867 15.0751C8.53246 15.0751 8.37929 15.0751 8.15698 15.0751C8.38886 14.4872 8.60266 13.9427 8.81753 13.3981C8.95794 13.3853 9.09941 13.3607 9.23981 13.3607C11.1151 13.3587 12.9914 13.3597 14.8667 13.3597C15.0273 13.3597 15.188 13.3597 15.3911 13.3597C15.3316 13.1713 15.2965 13.045 15.2507 12.9217C14.4455 10.7219 13.6414 8.5212 12.834 6.32244C12.6138 5.72367 12.6085 5.73649 11.9288 5.72762C11.6842 5.72466 11.5757 5.79667 11.498 6.01467C10.9832 7.45289 10.445 8.88421 9.92377 10.3215C9.55041 11.3483 9.19301 12.3792 8.82923 13.409Z" fill="white"/>
<path d="M6.07846 15.071C5.36047 15.071 4.70737 15.071 4.00002 15.071C4.20743 14.5156 4.39252 14.0036 4.59462 13.4966C4.61908 13.4355 4.73183 13.3674 4.80416 13.3664C5.41153 13.3556 6.01996 13.3605 6.70497 13.3605C6.49543 13.9435 6.30396 14.4801 6.09442 15.0621C6.78475 15.0621 7.43466 15.0621 8.15904 15.0621C8.0165 15.4675 7.89631 15.8207 7.7676 16.1699C7.33255 17.3546 6.88793 18.5363 6.46139 19.724C6.38906 19.9252 6.29333 20.0051 6.06038 19.9992C5.48812 19.9844 4.91479 19.9943 4.26806 19.9943C4.8733 18.3479 5.46259 16.744 6.07846 15.071Z" fill="white"/>
</svg>
