<svg width="28" height="28" viewBox="0 0 28 28" fill="none" xmlns="http://www.w3.org/2000/svg">
<g opacity="0.47" clip-path="url(#clip0_686_2605)">
<path d="M14 2.33333L14.378 2.33449L14.749 2.33916L15.4677 2.359L15.8165 2.37416L16.492 2.41383L17.1372 2.46749C22.7197 3.00883 24.9912 5.28033 25.5325 10.8628L25.5862 11.508L25.6258 12.1835C25.6317 12.2978 25.6375 12.4145 25.641 12.5323L25.6608 13.251L25.6667 14L25.6608 14.749L25.641 15.4677L25.6258 15.8165L25.5862 16.492L25.5325 17.1372C24.9912 22.7197 22.7197 24.9912 17.1372 25.5325L16.492 25.5862L15.8165 25.6258C15.7022 25.6317 15.5855 25.6375 15.4677 25.641L14.749 25.6608L14 25.6667L13.251 25.6608L12.5323 25.641L12.1835 25.6258L11.508 25.5862L10.8628 25.5325C5.28033 24.9912 3.00883 22.7197 2.4675 17.1372L2.41383 16.492L2.37417 15.8165C2.36849 15.7002 2.36343 15.584 2.359 15.4677L2.33917 14.749C2.33567 14.504 2.33333 14.2543 2.33333 14L2.3345 13.622L2.33917 13.251L2.359 12.5323L2.37417 12.1835L2.41383 11.508L2.4675 10.8628C3.00883 5.28033 5.28033 3.00883 10.8628 2.46749L11.508 2.41383L12.1835 2.37416C12.2978 2.36833 12.4145 2.3625 12.5323 2.359L13.251 2.33916C13.496 2.33566 13.7457 2.33333 14 2.33333ZM12.2628 10.6633C12.0184 10.5178 11.7292 10.4666 11.4497 10.5194C11.1701 10.5722 10.9195 10.7252 10.7449 10.9498C10.5704 11.1744 10.4839 11.4551 10.5017 11.739C10.5195 12.0229 10.6405 12.2905 10.8418 12.4915L12.3492 14L10.8418 15.5085L10.745 15.6182C10.5637 15.8527 10.4784 16.1474 10.5065 16.4424C10.5346 16.7375 10.674 17.0108 10.8963 17.2069C11.1187 17.4029 11.4073 17.507 11.7036 17.4979C11.9998 17.4889 12.2815 17.3674 12.4915 17.1582L14 15.6508L15.5085 17.1582L15.6182 17.255C15.8527 17.4363 16.1474 17.5216 16.4424 17.4935C16.7375 17.4654 17.0108 17.326 17.2069 17.1037C17.4029 16.8813 17.507 16.5927 17.4979 16.2964C17.4889 16.0002 17.3674 15.7184 17.1582 15.5085L15.6508 14L17.1582 12.4915L17.255 12.3818C17.4363 12.1473 17.5216 11.8526 17.4935 11.5575C17.4654 11.2625 17.326 10.9892 17.1037 10.7931C16.8813 10.5971 16.5927 10.493 16.2964 10.5021C16.0002 10.5111 15.7185 10.6326 15.5085 10.8418L14 12.3492L12.4915 10.8418L12.3818 10.745L12.2628 10.6633Z" fill="white"/>
</g>
<defs>
<clipPath id="clip0_686_2605">
<rect width="28" height="28" fill="white"/>
</clipPath>
</defs>
</svg>
