<svg width="17" height="17" viewBox="0 0 17 17" fill="none" xmlns="http://www.w3.org/2000/svg">
<path d="M1.7002 7.74438C1.7002 11.5222 4.72242 14.5444 8.5002 14.5444C12.2308 14.5444 15.3002 11.5222 15.3002 7.74438V9.2555C15.3002 13.0333 12.278 16.0555 8.5002 16.0555C4.76964 16.0555 1.7002 13.0333 1.7002 9.2555V7.74438Z" fill="#FFB961"/>
<path d="M1.7002 7.74438C1.7002 11.5222 4.72242 14.5444 8.5002 14.5444C12.2308 14.5444 15.3002 11.5222 15.3002 7.74438V9.2555C15.3002 13.0333 12.278 16.0555 8.5002 16.0555C4.76964 16.0555 1.7002 13.0333 1.7002 9.2555V7.74438Z" fill="#FFA04A"/>
<g opacity="0.6">
<path d="M8.50009 14.5444C7.13064 14.5444 5.80842 14.1194 4.76953 13.4111V14.9222C5.85564 15.6305 7.13064 16.0555 8.50009 16.0555C12.2306 16.0555 15.3001 13.0333 15.3001 9.2555V7.74438C15.3001 11.4749 12.2306 14.5444 8.50009 14.5444Z" fill="#DD6726"/>
</g>
<path d="M9.68066 14.4026V15.9137C12.8446 15.347 15.3001 12.5609 15.3001 9.20813V7.69702C15.3001 11.097 12.8918 13.8359 9.68066 14.4026Z" fill="#FFA04A"/>
<g opacity="0.6">
<path d="M13.5059 12.3249V13.8361C14.6392 12.6083 15.3003 11.0027 15.3003 9.2555V7.74438C15.3003 9.49161 14.592 11.0972 13.5059 12.3249Z" fill="#DD6726"/>
</g>
<path d="M15.3002 7.74434C15.3002 11.5221 12.278 14.5443 8.5002 14.5443C5.1002 14.5443 2.31408 12.0888 1.79464 8.83045C1.74742 8.45267 1.7002 8.12211 1.7002 7.74434C1.7002 3.96656 4.76964 0.944336 8.5002 0.944336C11.3808 0.944336 13.8835 2.73878 14.828 5.336C15.1113 6.04434 15.3002 6.89434 15.3002 7.74434Z" fill="#FFCD37"/>
<g opacity="0.4">
<path d="M3.35303 11.1915C4.72247 12.8443 6.61136 13.6943 8.50025 13.6943C10.3891 13.6943 12.278 12.8443 13.6475 11.1443C12.703 12.8443 10.8141 14.0721 8.50025 14.1193C6.23358 14.1193 4.29747 12.8443 3.35303 11.1915Z" fill="white"/>
</g>
<g opacity="0.2">
<path d="M14.2615 5.24167C13.0809 2.97501 10.8615 1.65278 8.50037 1.65278C6.13926 1.65278 3.91981 2.97501 2.73926 5.19445C2.92815 4.62778 3.2587 4.06112 3.63648 3.58889C4.81704 2.07778 6.61148 1.22778 8.50037 1.22778C11.2393 1.27501 13.4587 3.02223 14.2615 5.24167Z" fill="white"/>
</g>
<g opacity="0.4">
<path d="M3.35303 11.1915C4.72247 12.8443 6.61136 13.6943 8.50025 13.6943C10.3891 13.6943 12.278 12.8443 13.6475 11.1443C12.703 12.8443 10.8141 14.0721 8.50025 14.1193C6.23358 14.1193 4.29747 12.8443 3.35303 11.1915Z" fill="#FFDF7F"/>
</g>
<path d="M13.6475 7.74439C13.6475 10.5777 11.3336 12.8916 8.50025 12.8916C5.66692 12.8916 3.35303 10.5777 3.35303 7.74439C3.35303 4.91106 5.66692 2.59717 8.50025 2.59717C11.3336 2.59717 13.6475 4.91106 13.6475 7.74439Z" fill="#FFA04A"/>
<path d="M13.128 9.96369C13.3641 9.3498 13.5058 8.73592 13.5058 8.02758C13.5058 5.24147 11.2391 2.9748 8.50025 2.9748C4.95858 2.9748 2.50303 6.56369 3.82525 9.86925C3.54192 9.20814 3.35303 8.4998 3.35303 7.69703C3.35303 4.86369 5.66692 2.5498 8.50025 2.5498C11.3336 2.5498 13.6475 4.86369 13.6475 7.69703C13.6475 8.54703 13.4586 9.30258 13.128 9.96369Z" fill="#DD6726"/>
<g opacity="0.2">
<path d="M14.2615 5.24167C13.0809 2.97501 10.8615 1.65278 8.50037 1.65278C6.13926 1.65278 3.91981 2.97501 2.73926 5.19445C2.92815 4.62778 3.2587 4.06112 3.63648 3.58889C4.81704 2.07778 6.61148 1.22778 8.50037 1.22778C11.2393 1.27501 13.4587 3.02223 14.2615 5.24167Z" fill="white"/>
</g>
<path fill-rule="evenodd" clip-rule="evenodd" d="M9.49141 6.4426C9.75783 6.40788 10.0077 6.34571 10.1949 6.12325C10.3707 5.91372 10.4295 5.54834 10.3035 5.31095C10.1571 5.0356 9.99688 4.96576 9.64031 5.01421C9.58113 5.02226 9.52195 5.03037 9.46278 5.03848C9.13931 5.08283 8.8159 5.12716 8.49134 5.16197C8.32674 5.17974 7.84974 5.2512 7.7109 5.31095C7.35425 5.46526 7.32027 5.7301 7.27201 6.10619C7.26282 6.17782 7.25311 6.25349 7.24055 6.33319C7.18864 6.66304 7.13672 6.9937 7.08561 7.32395C7.0858 7.32396 7.086 7.32398 7.08619 7.32399C7.01859 7.75996 6.95179 8.19593 6.8858 8.6319C6.88459 8.63836 6.88379 8.64482 6.88298 8.65128L6.88298 8.65128C6.8516 8.85636 6.82101 9.06143 6.79043 9.2665L6.79042 9.26657C6.78289 9.31723 6.77502 9.368 6.76714 9.41884C6.72535 9.68845 6.68325 9.9601 6.68901 10.2295C6.69826 10.6623 7.08903 10.9949 7.49027 10.9788H7.49148C7.84482 11.0022 8.21145 10.768 8.29998 10.3942C8.36222 10.1337 8.37805 9.86128 8.3938 9.59049C8.39689 9.53733 8.39998 9.48423 8.40341 9.43129C8.41392 9.27105 8.42376 9.11102 8.43359 8.95106C8.43694 8.89662 8.44028 8.84218 8.44366 8.78774C8.45774 8.69327 8.52294 8.6529 8.61711 8.63917C8.66449 8.6322 8.71182 8.62386 8.75917 8.61552C8.85983 8.59779 8.96054 8.58005 9.06181 8.57538C9.50087 8.5552 9.74395 8.27985 9.82122 7.85997C9.82926 7.81677 9.83047 7.77115 9.82685 7.72513C9.82664 7.72508 9.82643 7.72504 9.82622 7.725C9.79792 7.43641 9.5372 7.12614 9.21936 7.20121C9.09535 7.23045 8.96701 7.24141 8.8341 7.25276C8.77248 7.25802 8.70989 7.26337 8.64628 7.27065C8.65157 7.23135 8.65661 7.19326 8.66152 7.15608C8.67604 7.04623 8.68951 6.94435 8.70544 6.8427C8.74086 6.61257 8.82738 6.52456 9.0616 6.49024C9.14115 6.4783 9.22121 6.47063 9.30134 6.46295C9.36472 6.45688 9.42814 6.45081 9.49141 6.4426ZM8.11218 7.43412C7.96711 7.41461 7.82638 7.39719 7.68987 7.38175C7.82637 7.3972 7.9671 7.41462 8.11218 7.43412Z" fill="#EF7B56"/>
<path fill-rule="evenodd" clip-rule="evenodd" d="M9.61104 6.56223C9.87746 6.52751 10.1274 6.46534 10.3145 6.24288C10.4904 6.03335 10.5491 5.66797 10.4232 5.43058C10.2767 5.15523 10.1165 5.08539 9.75994 5.13384C9.70076 5.14189 9.64158 5.15 9.58241 5.15811C9.25894 5.20246 8.93553 5.24679 8.61097 5.2816C8.44637 5.29936 7.96937 5.37083 7.83053 5.43058C7.47388 5.58488 7.4399 5.84973 7.39164 6.22582C7.38244 6.29745 7.37274 6.37311 7.36018 6.45282C7.30826 6.78267 7.25635 7.11332 7.20524 7.44358C7.20543 7.44359 7.20563 7.44361 7.20582 7.44362C7.13822 7.87959 7.07142 8.31556 7.00543 8.75153C7.00422 8.75799 7.00342 8.76445 7.00261 8.77091L7.00261 8.77091C6.97123 8.97599 6.94064 9.18106 6.91006 9.38614L6.91005 9.3862C6.90252 9.43686 6.89465 9.48763 6.88677 9.53847C6.84498 9.80808 6.80288 10.0797 6.80864 10.3491C6.81789 10.7819 7.20866 11.1146 7.6099 11.0984H7.61111C7.96445 11.1218 8.33108 10.8877 8.41961 10.5138C8.48185 10.2533 8.49768 9.98091 8.51343 9.71012C8.51652 9.65696 8.51961 9.60386 8.52304 9.55092C8.53355 9.39067 8.54339 9.23065 8.55322 9.07069C8.55657 9.01625 8.55991 8.96181 8.56328 8.90737C8.57737 8.8129 8.64257 8.77253 8.73674 8.7588C8.78412 8.75183 8.83145 8.74349 8.8788 8.73515C8.97946 8.71742 9.08017 8.69968 9.18144 8.69501C9.6205 8.67482 9.86357 8.39948 9.94084 7.9796C9.94889 7.9364 9.9501 7.89078 9.94648 7.84476C9.94627 7.84471 9.94606 7.84467 9.94585 7.84463C9.91755 7.55603 9.65682 7.24577 9.33899 7.32084C9.21497 7.35008 9.08664 7.36104 8.95373 7.37239C8.89211 7.37765 8.82952 7.38299 8.76591 7.39028C8.7712 7.35097 8.77624 7.31288 8.78115 7.2757C8.79567 7.16585 8.80913 7.06398 8.82507 6.96233C8.86048 6.7322 8.94701 6.64419 9.18123 6.60987C9.26078 6.59793 9.34084 6.59026 9.42097 6.58258C9.48434 6.57651 9.54777 6.57043 9.61104 6.56223ZM8.23181 7.55375C8.08674 7.53424 7.94601 7.51682 7.8095 7.50138C7.946 7.51683 8.08673 7.53425 8.23181 7.55375Z" fill="#FFCD37"/>
</svg>
