<svg width="24" height="24" viewBox="0 0 24 24" fill="none" xmlns="http://www.w3.org/2000/svg">
<g opacity="0.3" clip-path="url(#clip0_657_1401)">
<path d="M23 19H20.337C19.904 17.559 18.58 16.5 17 16.5C15.42 16.5 14.097 17.559 13.663 19H0.999984C0.447984 19 0 19.448 0 20C0 20.552 0.447984 21 0.999984 21H13.663C14.096 22.441 15.42 23.5 17 23.5C18.5799 23.5 19.903 22.441 20.337 21H23C23.553 21 24 20.552 24 20C24 19.448 23.553 19 23 19ZM17 21.5C16.173 21.5 15.5 20.827 15.5 20C15.5 19.173 16.173 18.5 17 18.5C17.827 18.5 18.5 19.173 18.5 20C18.5 20.827 17.827 21.5 17 21.5Z" fill="white"/>
<path d="M23 19H20.337C19.904 17.559 18.58 16.5 17 16.5C15.42 16.5 14.097 17.559 13.663 19H0.999984C0.447984 19 0 19.448 0 20C0 20.552 0.447984 21 0.999984 21H13.663C14.096 22.441 15.42 23.5 17 23.5C18.5799 23.5 19.903 22.441 20.337 21H23C23.553 21 24 20.552 24 20C24 19.448 23.553 19 23 19ZM17 21.5C16.173 21.5 15.5 20.827 15.5 20C15.5 19.173 16.173 18.5 17 18.5C17.827 18.5 18.5 19.173 18.5 20C18.5 20.827 17.827 21.5 17 21.5Z" fill="white"/>
<path d="M23 3H20.337C19.903 1.55902 18.58 0.500015 17 0.500015C15.42 0.500015 14.097 1.55902 13.663 3H0.999984C0.447984 3 0 3.44798 0 3.99998C0 4.55198 0.447984 4.99997 0.999984 4.99997H13.663C14.097 6.441 15.42 7.5 17 7.5C18.58 7.5 19.903 6.441 20.337 5.00002H23C23.553 5.00002 24 4.55203 24 4.00003C24 3.44803 23.553 3 23 3ZM17 5.49998C16.173 5.49998 15.5 4.827 15.5 3.99998C15.5 3.17297 16.173 2.49998 17 2.49998C17.827 2.49998 18.5 3.17297 18.5 3.99998C18.5 4.827 17.827 5.49998 17 5.49998Z" fill="white"/>
<path d="M23 3H20.337C19.903 1.55902 18.58 0.500015 17 0.500015C15.42 0.500015 14.097 1.55902 13.663 3H0.999984C0.447984 3 0 3.44798 0 3.99998C0 4.55198 0.447984 4.99997 0.999984 4.99997H13.663C14.097 6.441 15.42 7.5 17 7.5C18.58 7.5 19.903 6.441 20.337 5.00002H23C23.553 5.00002 24 4.55203 24 4.00003C24 3.44803 23.553 3 23 3ZM17 5.49998C16.173 5.49998 15.5 4.827 15.5 3.99998C15.5 3.17297 16.173 2.49998 17 2.49998C17.827 2.49998 18.5 3.17297 18.5 3.99998C18.5 4.827 17.827 5.49998 17 5.49998Z" fill="white"/>
<path d="M23 11H10.337C9.903 9.55903 8.58 8.50003 7.00003 8.50003C5.42006 8.50003 4.09702 9.55903 3.66305 11H0.999984C0.447984 11 0 11.448 0 12C0 12.552 0.447984 13 0.999984 13H3.663C4.09702 14.441 5.42002 15.5 6.99998 15.5C8.57995 15.5 9.903 14.441 10.337 13H23C23.553 13 24 12.552 24 12C24 11.448 23.553 11 23 11ZM6.99998 13.5C6.17297 13.5 5.49998 12.827 5.49998 12C5.49998 11.173 6.17297 10.5 6.99998 10.5C7.827 10.5 8.49998 11.173 8.49998 12C8.49998 12.827 7.827 13.5 6.99998 13.5Z" fill="white"/>
<path d="M23 11H10.337C9.903 9.55903 8.58 8.50003 7.00003 8.50003C5.42006 8.50003 4.09702 9.55903 3.66305 11H0.999984C0.447984 11 0 11.448 0 12C0 12.552 0.447984 13 0.999984 13H3.663C4.09702 14.441 5.42002 15.5 6.99998 15.5C8.57995 15.5 9.903 14.441 10.337 13H23C23.553 13 24 12.552 24 12C24 11.448 23.553 11 23 11ZM6.99998 13.5C6.17297 13.5 5.49998 12.827 5.49998 12C5.49998 11.173 6.17297 10.5 6.99998 10.5C7.827 10.5 8.49998 11.173 8.49998 12C8.49998 12.827 7.827 13.5 6.99998 13.5Z" fill="white"/>
</g>
<defs>
<clipPath id="clip0_657_1401">
<rect width="24" height="24" fill="white"/>
</clipPath>
</defs>
</svg>
