<svg width="32" height="32" viewBox="0 0 32 32" fill="none" xmlns="http://www.w3.org/2000/svg">
<g clip-path="url(#clip0_1135_12460)">
<path d="M2.6665 10.6667C2.6665 9.95942 2.94746 9.28115 3.44755 8.78105C3.94765 8.28095 4.62593 8 5.33317 8H26.6665C27.3737 8 28.052 8.28095 28.5521 8.78105C29.0522 9.28115 29.3332 9.95942 29.3332 10.6667V21.3333C29.3332 22.0406 29.0522 22.7189 28.5521 23.219C28.052 23.719 27.3737 24 26.6665 24H5.33317C4.62593 24 3.94765 23.719 3.44755 23.219C2.94746 22.7189 2.6665 22.0406 2.6665 21.3333V10.6667Z" stroke="#CD67CE" stroke-width="2" stroke-linecap="round" stroke-linejoin="round"/>
<path d="M8 16H13.3333M10.6667 13.3333V18.6666" stroke="#CD67CE" stroke-width="2" stroke-linecap="round" stroke-linejoin="round"/>
<path d="M20 14.6667V14.68" stroke="#CD67CE" stroke-width="2" stroke-linecap="round" stroke-linejoin="round"/>
<path d="M24 17.3333V17.3466" stroke="#CD67CE" stroke-width="2" stroke-linecap="round" stroke-linejoin="round"/>
</g>
<defs>
<clipPath id="clip0_1135_12460">
<rect width="32" height="32" fill="white"/>
</clipPath>
</defs>
</svg>
