<svg width="116" height="67" viewBox="0 0 116 67" fill="none" xmlns="http://www.w3.org/2000/svg">
<g clip-path="url(#clip0_2034_1872)">
<path opacity="0.9" d="M100.984 67C100.393 67 99.7916 66.9255 99.1979 66.7817C98.8779 66.7047 98.3328 66.679 97.8081 66.6559C97.5061 66.6431 97.2067 66.6277 96.9098 66.6071C93.8079 66.3914 91.1487 64.5454 89.631 61.6055C89.5747 61.7005 89.5184 61.7955 89.4595 61.888C87.5682 64.8586 85.1675 66.3658 82.3266 66.3658C82.168 66.3658 82.0042 66.3606 81.8429 66.3504C79.606 66.317 77.3845 65.3465 75.7465 63.6852C74.2007 62.119 73.3612 60.1241 73.3843 58.0675C73.3919 57.1842 73.4585 56.2753 73.5864 55.2637L73.5173 55.2329L74.0958 52.1621L74.1034 52.1082L74.1086 52.0877L75.035 47.1939L75.0504 47.2016C75.2116 46.3826 75.3754 45.5404 75.5469 44.6726C74.9378 45.1502 74.3005 45.5867 73.6274 45.9795C70.9068 47.5739 68.0711 48.3827 65.1969 48.3827C64.2934 48.3827 63.3798 48.3005 62.4712 48.1388L62.397 48.7807C62.3279 49.3943 62.2536 50.0182 62.182 50.6421L62.1615 50.8116C61.9286 52.8143 61.578 55.8388 59.0135 58.1342C58.2303 58.8352 57.3755 59.3795 56.4695 59.7543L54.724 60.2576C54.55 60.2858 54.3734 60.3115 54.1891 60.3295C53.859 60.3757 53.516 60.3988 53.1705 60.3988C52.9197 60.3988 52.6561 60.386 52.3925 60.3629C52.1877 60.3449 51.9702 60.3166 51.7501 60.2807C51.6247 60.2627 51.5018 60.2396 51.379 60.2139C50.5062 60.0368 49.677 59.7287 48.9194 59.2999C47.6781 58.6041 46.6314 57.5873 45.8149 56.2779C44.3177 53.8772 44.3945 51.4201 44.653 49.5176C43.8442 49.8128 43.0201 49.9669 42.2216 49.9669C41.9785 49.9669 41.7302 49.9515 41.4896 49.9232C39.1248 49.6434 36.9545 48.4032 35.4624 46.5623C33.7297 48.7037 31.6361 49.7872 29.2252 49.7872C29.0665 49.7872 28.9028 49.782 28.7415 49.7717C26.5046 49.7384 24.2831 48.7678 22.6426 47.1066C21.0967 45.5404 20.2573 43.5455 20.2803 41.4889C20.2982 39.6685 20.5593 37.9405 20.8638 36.2665C20.3443 36.3743 19.8017 36.4411 19.2438 36.4693C19.1491 36.4744 19.0467 36.4822 18.9392 36.495C18.9034 37.0624 18.8675 37.6273 18.8317 38.1947C18.8112 38.5105 18.7933 38.8263 18.7754 39.1421C18.6653 41.0395 18.5527 42.9806 18.0767 44.9833C17.1451 48.9116 13.4903 51.7667 9.38514 51.7667C9.26485 51.7667 9.14457 51.7642 9.02428 51.759C8.97821 51.759 8.9347 51.759 8.88863 51.759C4.17687 51.759 0.110059 47.7922 0.00768457 43.0961C-0.0358244 41.037 0.26106 39.1165 0.550267 37.2575C0.601454 36.9263 0.650082 36.6131 0.69615 36.2999C0.888101 35.011 1.08261 33.7195 1.27712 32.4306C1.2848 32.3664 1.29504 32.3022 1.30528 32.238C1.50235 30.9311 1.70709 29.578 1.92464 28.1659H1.92208L2.13962 26.7537L3.14033 20.2989H3.14545C3.28621 19.4029 3.42442 18.5068 3.56518 17.6107C4.26644 13.1535 6.96144 9.60513 10.9643 7.87717C12.226 7.33542 13.5876 6.9811 15.0132 6.82705C17.0606 6.60624 19.1619 6.31868 21.194 6.03881L22.2049 5.9053C22.8345 5.82057 23.3899 5.77949 23.912 5.77949C25.55 5.77949 26.9653 6.21084 28.1375 7.06326C29.8446 5.20693 32.2837 4.10032 34.8046 4.10032C35.2679 4.10032 35.7285 4.13883 36.179 4.21586C37.7376 4.48032 39.1913 5.18382 40.3968 6.23395C40.4173 6.21341 40.4377 6.19287 40.4582 6.17233C42.109 4.49829 44.2972 3.57397 46.6211 3.57397H46.7107C51.3713 3.62533 54.9493 7.16596 55.2308 11.9904C55.282 12.8633 55.2001 13.7235 54.9928 14.5451C55.1131 14.4963 55.2385 14.4501 55.3613 14.4039C56.0805 14.1445 56.8099 13.9802 57.5291 13.9109C57.785 13.8852 58.0486 13.8724 58.3071 13.8724C59.7967 13.8724 61.1966 14.296 62.4021 15.1074C63.0522 14.8635 63.7381 14.6272 64.4572 14.4347C65.6499 14.1163 66.8451 13.9545 68.0122 13.9545C70.935 13.9545 73.6991 14.9353 76.2533 16.8713C75.8924 16.2576 75.593 15.6414 75.3601 15.0303L75.3345 14.961L74.8354 13.0354L74.8252 12.9532C74.5897 11.1302 75.0248 9.48702 76.0895 8.19812L77.7787 6.15179C78.8152 4.89626 80.3815 4.14397 82.1884 4.03356L82.2908 4.02843L84.6505 4.25181L84.7324 4.26978C87.0768 4.79869 89.6464 6.15179 91.9677 8.08001L92.001 8.10825C92.1289 8.21609 92.2543 8.32136 92.3772 8.4292C95.6097 11.2355 97.5855 14.4963 97.7979 17.3745L97.8056 17.4875C97.8133 17.6056 97.8158 17.7211 97.8184 17.8341C97.8184 17.8341 97.8184 17.9522 97.8184 17.9984C97.8184 18.0754 97.8158 18.1473 97.8107 18.2192L97.803 18.3348C97.7953 18.4734 97.78 18.6095 97.7646 18.7456L97.7595 18.7892C97.7083 19.1615 97.6264 19.521 97.5113 19.8702C98.6502 18.6891 100.094 17.8469 101.798 17.3951C102.553 17.1948 103.313 17.0921 104.063 17.0921C106.502 17.0921 108.767 18.1782 110.282 20.073C111.964 22.1784 112.558 25.0438 111.915 27.9348C111.385 30.3098 110.866 32.7027 110.359 35.0392C111.066 35.4526 111.67 35.9969 112.143 36.6516C113.105 37.9816 113.451 39.6608 113.118 41.3759C112.806 42.9729 112.402 44.5083 111.915 45.9435C111.135 48.2543 109.21 49.7153 106.692 49.9617C106.536 50.6011 105.919 53.1096 105.765 53.7309C106.136 53.9979 106.479 54.3086 106.781 54.6552H107.851L108.284 58.0392L108.307 58.1214V58.2164L107.603 62.6146C107.242 63.4003 106.758 64.1243 106.177 64.7405C104.795 66.1963 102.952 67 100.984 67Z" fill="#CD67CE"/>
<path d="M103.751 63.4234C103.16 63.4234 102.558 63.349 101.964 63.2052C101.645 63.1281 101.099 63.1025 100.575 63.0794C100.273 63.0665 99.9733 63.0511 99.6764 63.0306C96.5745 62.8149 93.9153 60.9688 92.3976 58.029C92.3413 58.124 92.285 58.219 92.2261 58.3114C90.3348 61.2821 87.9341 62.7892 85.0932 62.7892C84.9346 62.7892 84.7708 62.7841 84.6095 62.7738C82.3726 62.7404 80.1511 61.7699 78.5131 60.1087C76.9673 58.5425 76.1278 56.5475 76.1509 54.4909C76.1585 53.6077 76.2251 52.6988 76.3531 51.6872L76.284 51.6564L76.8624 48.5856L76.87 48.5317L76.8752 48.5111L77.8016 43.6174L77.817 43.6251C77.9782 42.8061 78.142 41.9639 78.3135 41.0961C77.7044 41.5736 77.0671 42.0101 76.394 42.4029C73.6734 43.9974 70.8376 44.8062 67.9635 44.8062C67.06 44.8062 66.1464 44.724 65.2378 44.5623L65.1636 45.2041C65.0945 45.8178 65.0202 46.4417 64.9486 47.0656L64.9281 47.2376C64.6952 49.2403 64.3446 52.2649 61.7801 54.5603C60.9969 55.2612 60.1421 55.8055 59.2361 56.1804L57.4906 56.6836C57.3166 56.7119 57.14 56.7375 56.9557 56.7555C56.6256 56.8017 56.2826 56.8248 55.9371 56.8248C55.6863 56.8248 55.4227 56.812 55.1591 56.7889C54.9543 56.7709 54.7368 56.7427 54.5167 56.7067C54.3913 56.6888 54.2684 56.6656 54.1456 56.64C53.2728 56.4628 52.4436 56.1547 51.686 55.7259C50.4447 55.0301 49.398 54.0134 48.5815 52.7039C47.0843 50.3033 47.1611 47.8461 47.4196 45.9436C46.6108 46.2389 45.7867 46.3929 44.9882 46.3929C44.7451 46.3929 44.4968 46.3775 44.2562 46.3493C41.8914 46.0694 39.7211 44.8293 38.229 42.9883C36.4963 45.1297 34.4027 46.2132 31.9918 46.2132C31.8332 46.2132 31.6694 46.208 31.5081 46.1978C29.2712 46.1644 27.0497 45.1939 25.4092 43.5327C23.8633 41.9665 23.0239 39.9715 23.0469 37.9149C23.0648 36.0945 23.3259 34.3665 23.6304 32.6925C23.1109 32.8003 22.5683 32.8671 22.0104 32.8953C21.9157 32.9005 21.8133 32.9082 21.7058 32.921C21.67 33.4884 21.6341 34.0533 21.5983 34.6207C21.5778 34.9365 21.5599 35.2523 21.542 35.5682C21.432 37.4656 21.3193 39.4066 20.8433 41.4093C19.9117 45.3376 16.2569 48.1928 12.1517 48.1928C12.0315 48.1928 11.9112 48.1902 11.7909 48.1851C11.7448 48.1851 11.7013 48.1851 11.6552 48.1851C6.94347 48.1851 2.87666 44.2182 2.77429 39.5222C2.73078 37.463 3.02766 35.5425 3.31687 33.6836C3.36806 33.3524 3.41668 33.0391 3.46275 32.7259C3.6547 31.437 3.84921 30.1455 4.04372 28.8566C4.0514 28.7924 4.06164 28.7282 4.07188 28.664C4.26895 27.3572 4.47369 26.0041 4.69124 24.5919H4.68868L4.90622 23.1798L5.90693 16.725H5.91205C6.05281 15.8289 6.19102 14.9328 6.33178 14.0367C7.03304 9.5795 9.72804 6.03116 13.7309 4.3032C14.9926 3.76145 16.3542 3.40713 17.7798 3.25308C19.8272 3.03227 21.9285 2.7447 23.9606 2.46484L24.9741 2.32619C25.6037 2.24146 26.1591 2.20038 26.6812 2.20038C28.3192 2.20038 29.7345 2.63173 30.9067 3.48415C32.6138 1.62782 35.0528 0.521211 37.5738 0.521211C38.037 0.521211 38.4977 0.559724 38.9481 0.63675C40.5068 0.901207 41.9605 1.60471 43.166 2.65484C43.1864 2.6343 43.2069 2.61376 43.2274 2.59322C44.8756 0.921747 47.0664 0 49.3877 0H49.4773C54.1379 0.0513508 57.7159 3.59199 57.9974 8.4164C58.0486 9.28936 57.9667 10.1495 57.7594 10.9711C57.8797 10.9223 58.0051 10.8761 58.1279 10.8299C58.8471 10.5706 59.5765 10.4062 60.2957 10.3369C60.5516 10.3112 60.8152 10.2984 61.0737 10.2984C62.5633 10.2984 63.9632 10.7221 65.1687 11.5334C65.8188 11.2895 66.5047 11.0533 67.2238 10.8607C68.4165 10.5423 69.6117 10.3806 70.7788 10.3806C73.7016 10.3806 76.4657 11.3614 79.0199 13.2973C78.659 12.6837 78.3596 12.0674 78.1267 11.4564L78.1011 11.387L77.602 9.46139L77.5918 9.37923C77.3563 7.55627 77.7914 5.91305 78.8561 4.62414L80.5453 2.57781C81.5818 1.32228 83.1481 0.569994 84.955 0.45959L85.0574 0.454455L87.4171 0.677831L87.499 0.695804C89.8434 1.22472 92.413 2.57781 94.7343 4.50604L94.7676 4.53428C94.8955 4.64212 95.021 4.74738 95.1438 4.85522C98.3763 7.66154 100.352 10.9223 100.565 13.8005L100.572 13.9135C100.58 14.0316 100.582 14.1472 100.585 14.2601C100.585 14.2601 100.585 14.3782 100.585 14.4244C100.585 14.5015 100.582 14.5734 100.577 14.6453L100.57 14.7608C100.562 14.8994 100.547 15.0355 100.531 15.1716L100.526 15.2153C100.475 15.5875 100.393 15.947 100.278 16.2962C101.417 15.1151 102.86 14.273 104.565 13.8211C105.32 13.6208 106.08 13.5181 106.83 13.5181C109.269 13.5181 111.534 14.6042 113.049 16.499C114.731 18.6044 115.324 21.4698 114.682 24.3608C114.152 26.7358 113.633 29.1288 113.126 31.4652C113.832 31.8786 114.436 32.4229 114.91 33.0776C115.872 34.4076 116.217 36.0868 115.885 37.8019C115.573 39.3989 115.168 40.9343 114.682 42.3696C113.901 44.6804 111.977 46.1413 109.458 46.3878C109.302 47.0271 108.685 49.5356 108.532 50.1569C108.903 50.424 110.063 50.9176 110.5 51.5C112 53.5 110.861 55.9698 110.459 58.4681L110.367 59.0406C110.006 59.8263 109.522 60.5503 108.941 61.1665C107.562 62.6198 105.722 63.4234 103.751 63.4234Z" fill="#1D1B49"/>
<path d="M102.904 59.3385C101.954 59.1074 100.938 59.1305 99.9529 59.0612C97.1504 58.8661 95.5252 56.3191 95.2002 53.9441C98.8959 54.6527 102.84 55.0507 107.119 55.0533C107.129 55.1406 107.14 55.2253 107.142 55.3152C107.275 57.6311 105.507 59.9752 102.904 59.3385Z" fill="#FFA04A"/>
<path d="M111.984 37.0368C111.718 38.4053 111.368 39.7661 110.92 41.0858C110.554 42.1693 109.612 42.4749 108.524 42.4389C106.339 42.367 106.344 42.3773 105.824 44.5058C105.276 46.755 104.716 48.9939 104.176 51.243C103.869 52.5165 104.071 52.8092 105.325 53.03C106.336 53.2072 106.971 53.903 107.117 55.0558C102.837 55.0533 98.8934 54.6553 95.1976 53.9467H95.1951C95.0978 53.2431 95.1132 52.5576 95.2488 51.9517C96.0064 48.5086 96.6923 45.0476 97.4345 41.471C96.9866 41.3477 96.6309 41.2835 96.3007 41.1526C94.8521 40.58 94.5143 39.9382 94.8829 38.413C95.1337 37.3783 95.3666 36.3308 95.7198 35.3294C96.1881 34.002 96.8459 33.5398 98.2151 33.6528C98.9855 33.717 99.2593 33.4448 99.395 32.7593C100.083 29.3342 100.815 25.9194 101.483 22.4891C101.952 20.0885 103.17 18.3015 105.576 17.6622C109.036 16.743 111.644 19.7136 110.802 23.4905C110.075 26.7564 109.369 30.0249 108.66 33.2934C108.586 33.6374 108.555 33.9943 108.488 34.4462C109.108 34.495 109.614 34.5155 110.114 34.5771C111.473 34.744 112.245 35.6889 111.984 37.0368Z" fill="#FFCD37"/>
<path d="M89.9869 52.704C89.7566 53.9338 89.5109 55.1868 88.8839 56.1753C88.0162 57.5387 86.7903 58.9739 84.7607 58.7993C82.465 58.8199 80.0899 56.8377 80.113 54.5372C80.1309 52.7938 80.4303 51.0428 80.7579 49.3097C83.6986 50.6268 86.7519 51.7822 89.9869 52.704Z" fill="#FFA04A"/>
<path d="M95.2998 26.6562C94.6472 30.1583 93.9306 33.6424 93.2165 37.1317C92.2235 41.9895 91.2279 46.8473 90.1862 51.6948C90.1146 52.026 90.0506 52.365 89.9892 52.7039C86.7516 51.7821 83.7008 50.6267 80.7627 49.3096C80.8241 48.9835 80.8881 48.6574 80.9495 48.3314C82.0219 42.6982 83.1582 37.0753 84.2997 31.4575C84.7681 29.1544 85.1904 26.8308 85.8609 24.5867C86.5622 22.2503 89.1522 20.7611 91.3814 21.1411C93.8998 21.5699 95.7682 24.1374 95.2998 26.6562Z" fill="#FFCD37"/>
<path d="M42.2012 10.0801C41.5486 13.5822 40.832 17.0664 40.1179 20.5557C39.6854 22.6713 39.2528 24.787 38.8152 26.9001C35.8361 25.8089 32.6958 24.8538 29.3481 24.0809C29.9573 21.0127 30.5766 17.9471 31.2011 14.8814C31.6695 12.5783 32.0918 10.2547 32.7623 8.01068C33.4636 5.67422 36.0536 4.18504 38.2828 4.56504C40.8012 4.99382 42.6696 7.55879 42.2012 10.0801Z" fill="#FFCD37"/>
<path d="M52.6047 20.0191C52.3897 21.3337 52.1645 22.6483 51.9341 23.9629C51.563 26.0682 51.1817 28.1685 50.7978 30.2739C50.6852 30.8927 50.5726 31.5114 50.4574 32.1302C47.6831 30.6667 44.7987 29.2828 41.7505 28.0375C41.9424 26.9797 42.1318 25.9193 42.3238 24.8615C42.7282 22.6072 43.0916 20.3375 43.693 18.1345C44.1921 16.3141 45.8224 14.997 47.5269 14.7069C47.5321 14.7069 47.5372 14.7043 47.5449 14.7043C47.9799 14.6324 48.4176 14.6247 48.8399 14.694C51.2124 15.074 53.0116 17.5543 52.6047 20.0191Z" fill="#FFCD37"/>
<path d="M49.4136 13.4873C46.7289 13.5232 44.6481 11.5488 44.62 8.94017C44.5892 6.22114 46.7596 3.94887 49.4418 3.97968C52.0933 4.01049 53.8899 6.10304 54.0384 8.64747C54.1894 11.2766 52.019 13.4513 49.4136 13.4873Z" fill="#FFCD37"/>
<path d="M29.0357 13.3255C27.8456 14.7402 26.2563 15.1356 24.562 15.3564C23.6509 15.4745 22.7346 15.5233 21.8286 15.6594C20.3391 15.8776 19.7888 16.4374 19.5636 17.9009C19.4279 18.7661 19.3205 19.634 19.1874 20.6225C20.4645 20.4761 21.6776 20.453 22.8319 20.1808C24.8538 19.7033 26.5122 21.6777 26.6914 23.5135C19.8067 22.1322 14.061 21.3311 9.26221 20.9614C9.58724 18.8611 9.9174 16.7583 10.2476 14.6606C10.7466 11.4923 12.597 9.12758 15.2972 7.95935C16.1801 7.57935 17.1552 7.32517 18.202 7.2122C20.6436 6.95031 23.075 6.60369 25.509 6.27248C27.7765 5.96437 28.7952 6.40856 29.7268 8.15962C30.5279 9.66933 30.1542 11.993 29.0357 13.3255Z" fill="#FFCD37"/>
<path d="M77.4052 17.1076C74.7434 14.7737 71.726 13.7775 68.2504 14.7044C66.8683 15.0766 65.5477 15.6775 64.181 16.1807C63.3902 14.8071 62.154 14.1523 60.6721 14.2987C60.2831 14.3372 59.8762 14.4296 59.459 14.5785C57.5932 15.2461 56.5567 16.6377 56.0806 18.4812C55.835 19.4389 55.7377 20.4325 55.5713 21.4133C54.8752 25.5342 54.1765 29.6526 53.4829 33.7735C57.2452 35.8789 60.8257 38.0972 64.3832 40.2719C67.8741 41.3554 71.2243 40.8265 74.3928 38.9702C76.5503 37.707 78.1883 35.8943 79.491 33.7504C82.3677 29.021 82.3959 21.4827 77.4052 17.1076ZM67.544 32.0917C65.0665 32.0584 63.4618 30.3895 63.5002 27.8835C63.5437 25.1619 65.9316 22.7536 68.5447 22.7921C70.9607 22.8306 72.655 24.5945 72.6192 27.0337C72.5833 29.7219 70.1699 32.1277 67.544 32.0917Z" fill="#FFCD37"/>
<path d="M26.6606 24.3711C26.1692 27.0414 24.6234 28.7924 21.8311 28.9208C20.8841 28.9645 19.9449 29.1878 19.003 29.3265C18.4041 29.4138 17.9895 29.6705 17.8999 30.2713C17.8155 31.6347 17.7336 32.9981 17.644 34.364C17.5109 36.4155 17.4597 38.5054 16.9862 40.4876C16.4232 42.8651 14.0916 44.3543 11.8445 44.2054H11.8368C9.28516 44.3081 6.80003 42.1924 6.74116 39.44C6.69766 37.404 7.08412 35.3474 7.38612 33.3164C7.58063 32.0121 7.77514 30.7078 7.97477 29.4035C7.97989 29.3624 7.98501 29.3213 7.99269 29.2803C8.41242 26.5073 8.83727 23.7344 9.26724 20.9614C14.0635 21.3337 19.8092 22.1322 26.6964 23.5136C26.7195 23.8063 26.7118 24.0964 26.6606 24.3711Z" fill="#FFA04A"/>
<path d="M38.8126 26.8975C38.2469 29.6397 37.6736 32.3818 37.085 35.1188C36.76 36.6465 36.5859 38.3359 35.7823 39.5966C34.9147 40.96 33.6887 42.3952 31.6592 42.2206C29.3634 42.2412 26.9884 40.259 27.0114 37.9585C27.0319 35.8865 27.4516 33.8042 27.8432 31.7527C28.3295 29.1929 28.8337 26.6356 29.3404 24.0784H29.343C32.6957 24.8512 35.836 25.8063 38.8126 26.8975Z" fill="#FFA04A"/>
<path d="M50.4578 32.1303C50.0125 34.5874 49.5621 37.0471 49.1039 39.4991C48.2926 41.1013 46.2759 42.5827 44.7198 42.3979C42.0069 42.0744 39.9491 39.5941 40.182 36.8776C40.6939 33.9301 41.2186 30.9826 41.7484 28.035C44.7991 29.2829 47.6835 30.6668 50.4578 32.1303Z" fill="#FFA04A"/>
<path d="M64.383 40.2719C64.209 40.2154 64.0324 40.1563 63.8558 40.0947C63.3183 39.9047 62.85 39.517 62.0335 39.0369C61.8672 40.0049 61.7136 40.9266 61.5575 41.8484L61.2197 44.7471C61.148 45.3864 61.0712 46.0257 60.997 46.6625C60.7871 48.4572 60.6054 50.2776 59.1363 51.5922C58.5119 52.1519 57.8388 52.5268 57.1068 52.7065C57.1068 52.7065 57.1042 52.7091 57.1017 52.7065C56.8944 52.7578 56.6819 52.7886 56.4669 52.8092C56.1777 52.8554 55.8629 52.8631 55.5149 52.8297C55.3843 52.8195 55.2564 52.8015 55.1335 52.7784C55.067 52.7707 55.003 52.7578 54.939 52.745C54.4579 52.6474 54.0228 52.4857 53.6261 52.2597C52.953 51.8849 52.3976 51.3277 51.942 50.5985C50.8978 48.9219 51.228 47.1272 51.5248 45.3453C51.6323 44.7086 51.7398 44.0744 51.8473 43.4377C52.3899 40.218 52.9325 36.9957 53.4802 33.776C57.245 35.8814 60.8281 38.0972 64.383 40.2719Z" fill="#FFA04A"/>
<path d="M92.2007 7.56919C95.684 10.4628 97.473 14.0574 96.201 15.6005L94.5169 17.6417C94.1356 18.1012 93.5239 18.3272 92.7612 18.34C91.3817 18.3606 89.5083 17.6879 87.6016 16.4478C87.0334 16.078 86.4652 15.6621 85.9047 15.1948C82.424 12.3012 80.6325 8.70661 81.9045 7.16609L83.5885 5.12489C84.8656 3.5818 88.72 4.67557 92.2007 7.56919Z" fill="#FFA04A"/>
<path d="M81.7817 9.87485L83.5503 7.73096C83.5503 7.73096 83.5819 8.49095 84.9 9.87485C86.218 11.2588 86.45 11.9469 86.45 11.9469L84.7967 13.9495C84.7967 13.9495 82.8208 11.5643 82.7824 11.5181C82.7466 11.4744 81.7817 9.87485 81.7817 9.87485Z" fill="#FFCD37"/>
<path d="M94.627 16.1371C94.627 16.1371 93.529 17.3823 92.6691 18.3862C91.2896 18.3888 89.4238 17.6879 87.5376 16.4221C88.2977 15.526 89.6695 13.9084 89.6695 13.9084L94.627 16.1371Z" fill="#DD6726"/>
<path d="M96.1999 15.5952C97.4729 14.0531 95.6815 10.4576 92.1989 7.56437C88.7162 4.67117 84.861 3.5759 83.5881 5.11802C82.3151 6.66014 84.1065 10.2557 87.5891 13.1489C91.0718 16.0421 94.9269 17.1374 96.1999 15.5952Z" fill="#FFCD37"/>
<path d="M94.944 14.5509C95.8807 13.4162 94.3789 10.6179 91.5897 8.30078C88.8006 5.98368 85.7802 5.0252 84.8435 6.15995C83.9068 7.2947 85.4085 10.093 88.1977 12.4101C90.9869 14.7272 94.0073 15.6856 94.944 14.5509Z" fill="#FFA04A"/>
<path d="M91.5943 8.30352C94.384 10.622 95.8837 13.4206 94.947 14.5555C94.86 14.6608 94.7525 14.7481 94.6297 14.8199C93.4447 15.4952 90.7266 14.5118 88.2006 12.4142C85.9739 10.563 84.5663 8.40622 84.5689 7.03259C84.5689 6.68597 84.6584 6.3907 84.8478 6.16219C85.7845 5.02734 88.8071 5.9876 91.5943 8.30352Z" fill="#DD6726"/>
<path d="M91.2051 9.04298C93.6647 11.0867 95.08 13.5336 94.6321 14.8199C93.4471 15.4952 90.7291 14.5118 88.203 12.4142C85.9764 10.563 84.5687 8.40623 84.5713 7.03259C84.5764 7.02489 84.5841 7.01719 84.5892 7.00949C85.5259 5.87463 88.4871 6.78354 91.2051 9.04298Z" fill="#FFA04A"/>
<path d="M92.4079 12.7864L91.9447 12.4013C91.8064 12.6478 91.5889 12.7427 91.2946 12.6709C90.99 12.5964 90.5933 12.3602 90.1122 11.9571L89.9228 11.8005L90.3681 11.0944L90.4986 11.2022C90.8185 11.4667 91.0079 11.536 91.0694 11.4153C91.0949 11.364 91.0873 11.3049 91.0489 11.2382C91.0105 11.1714 90.9542 11.1098 90.8851 11.0533C90.7622 10.9506 90.6164 10.8838 90.4449 10.8479L89.1601 10.5937C88.6329 10.491 88.1466 10.2625 87.7243 9.91075C87.4965 9.72075 87.3276 9.53076 87.2226 9.34076C87.1177 9.15589 87.0691 8.98644 87.0742 8.83238C87.0793 8.68347 87.128 8.56279 87.2175 8.47036L86.8413 8.15712L87.1945 7.9928L87.5451 8.28293C87.7934 8.20847 88.0724 8.23928 88.3872 8.36766C88.6917 8.49347 89.0193 8.70144 89.3725 8.99414L88.8837 9.41522L88.6917 9.25603C88.6073 9.18414 88.5279 9.14049 88.4588 9.11995C88.3872 9.09941 88.3308 9.10711 88.2873 9.13792C88.2387 9.17387 88.2234 9.21752 88.2438 9.27143C88.2618 9.32535 88.3078 9.38441 88.382 9.44346C88.487 9.53076 88.6917 9.61035 88.9963 9.68481L90.1608 9.96724C90.3195 10.0058 90.4909 10.0699 90.6803 10.1624C90.8646 10.2522 91.0566 10.3806 91.2536 10.5449C91.5505 10.7914 91.7655 11.043 91.9037 11.3024C92.0445 11.572 92.1033 11.8184 92.0726 12.0418L92.5077 12.4038L92.4079 12.7864Z" fill="#FFCD37"/>
</g>
<defs>
<clipPath id="clip0_2034_1872">
<rect width="116" height="67" fill="white"/>
</clipPath>
</defs>
</svg>
