<svg width="30" height="28" viewBox="0 0 17 17" fill="none" xmlns="http://www.w3.org/2000/svg">
<path d="M1.7002 7.74438C1.7002 11.5222 4.72242 14.5444 8.50019 14.5444C12.2308 14.5444 15.3002 11.5222 15.3002 7.74438V9.2555C15.3002 13.0333 12.278 16.0555 8.50019 16.0555C4.76964 16.0555 1.7002 13.0333 1.7002 9.2555V7.74438Z" fill="#FFB961"/>
<path d="M1.7002 7.74438C1.7002 11.5222 4.72242 14.5444 8.50019 14.5444C12.2308 14.5444 15.3002 11.5222 15.3002 7.74438V9.2555C15.3002 13.0333 12.278 16.0555 8.50019 16.0555C4.76964 16.0555 1.7002 13.0333 1.7002 9.2555V7.74438Z" fill="#FFA04A"/>
<g opacity="0.6">
<path d="M8.50009 14.5444C7.13064 14.5444 5.80842 14.1194 4.76953 13.4111V14.9222C5.85564 15.6305 7.13064 16.0555 8.50009 16.0555C12.2306 16.0555 15.3001 13.0333 15.3001 9.2555V7.74438C15.3001 11.4749 12.2306 14.5444 8.50009 14.5444Z" fill="#DD6726"/>
</g>
<path d="M9.68066 14.4026V15.9137C12.8446 15.347 15.3001 12.5609 15.3001 9.20813V7.69702C15.3001 11.097 12.8918 13.8359 9.68066 14.4026Z" fill="#FFA04A"/>
<g opacity="0.6">
<path d="M13.5059 12.3249V13.8361C14.6392 12.6083 15.3003 11.0027 15.3003 9.2555V7.74438C15.3003 9.49161 14.592 11.0972 13.5059 12.3249Z" fill="#DD6726"/>
</g>
<path d="M15.3002 7.74434C15.3002 11.5221 12.278 14.5443 8.50019 14.5443C5.1002 14.5443 2.31408 12.0888 1.79464 8.83045C1.74742 8.45267 1.7002 8.12211 1.7002 7.74434C1.7002 3.96656 4.76964 0.944336 8.50019 0.944336C11.3808 0.944336 13.8835 2.73878 14.828 5.336C15.1113 6.04434 15.3002 6.89434 15.3002 7.74434Z" fill="#FFCD37"/>
<g opacity="0.4">
<path d="M3.35303 11.1915C4.72247 12.8443 6.61136 13.6943 8.50025 13.6943C10.3891 13.6943 12.278 12.8443 13.6475 11.1443C12.703 12.8443 10.8141 14.0721 8.50025 14.1193C6.23358 14.1193 4.29747 12.8443 3.35303 11.1915Z" fill="white"/>
</g>
<g opacity="0.2">
<path d="M14.2615 5.24167C13.0809 2.97501 10.8615 1.65278 8.50037 1.65278C6.13926 1.65278 3.91981 2.97501 2.73926 5.19445C2.92815 4.62778 3.2587 4.06112 3.63648 3.58889C4.81704 2.07778 6.61148 1.22778 8.50037 1.22778C11.2393 1.27501 13.4587 3.02223 14.2615 5.24167Z" fill="white"/>
</g>
<g opacity="0.4">
<path d="M3.35303 11.1915C4.72247 12.8443 6.61136 13.6943 8.50025 13.6943C10.3891 13.6943 12.278 12.8443 13.6475 11.1443C12.703 12.8443 10.8141 14.0721 8.50025 14.1193C6.23358 14.1193 4.29747 12.8443 3.35303 11.1915Z" fill="#FFDF7F"/>
</g>
<path d="M13.6475 7.74439C13.6475 10.5777 11.3336 12.8916 8.50025 12.8916C5.66692 12.8916 3.35303 10.5777 3.35303 7.74439C3.35303 4.91106 5.66692 2.59717 8.50025 2.59717C11.3336 2.59717 13.6475 4.91106 13.6475 7.74439Z" fill="#FFA04A"/>
<path d="M13.128 9.96369C13.3641 9.3498 13.5058 8.73592 13.5058 8.02758C13.5058 5.24147 11.2391 2.9748 8.50025 2.9748C4.95858 2.9748 2.50303 6.56369 3.82525 9.86925C3.54192 9.20814 3.35303 8.4998 3.35303 7.69703C3.35303 4.86369 5.66692 2.5498 8.50025 2.5498C11.3336 2.5498 13.6475 4.86369 13.6475 7.69703C13.6475 8.54703 13.4586 9.30258 13.128 9.96369Z" fill="#DD6726"/>
<g opacity="0.2">
<path d="M14.2615 5.24167C13.0809 2.97501 10.8615 1.65278 8.50037 1.65278C6.13926 1.65278 3.91981 2.97501 2.73926 5.19445C2.92815 4.62778 3.2587 4.06112 3.63648 3.58889C4.81704 2.07778 6.61148 1.22778 8.50037 1.22778C11.2393 1.27501 13.4587 3.02223 14.2615 5.24167Z" fill="white"/>
</g>
<path fill-rule="evenodd" clip-rule="evenodd" d="M9.10541 9.81958C9.35713 9.9135 9.58658 10.0304 9.71872 10.2894C9.84279 10.5332 9.81762 10.9024 9.64135 11.1053C9.43653 11.3405 9.26473 11.3724 8.92829 11.2448C8.87244 11.2236 8.81662 11.2023 8.7608 11.1811C8.45567 11.0649 8.1506 10.9488 7.84225 10.8416C7.6859 10.7872 7.23732 10.61 7.11553 10.5205C6.80288 10.2897 6.82951 10.024 6.86732 9.64672C6.87453 9.57486 6.88213 9.49895 6.88788 9.41846C6.9117 9.08541 6.93571 8.75156 6.96041 8.41829C6.9606 8.41832 6.96079 8.41835 6.96098 8.41838C6.99346 7.9784 7.02673 7.5386 7.06077 7.09898C7.06105 7.09241 7.06173 7.08594 7.0624 7.07946L7.0624 7.07946C7.07808 6.87259 7.09454 6.66591 7.111 6.45922L7.11101 6.45915C7.1151 6.40809 7.11888 6.35686 7.12267 6.30555C7.14278 6.03347 7.16303 5.75932 7.2294 5.4982C7.33604 5.07864 7.79178 4.84268 8.17903 4.94892L8.18021 4.94919C8.52973 5.00608 8.83409 5.3169 8.83601 5.70109C8.83788 5.96895 8.79187 6.23788 8.74613 6.50524C8.73715 6.55773 8.72818 6.61016 8.71958 6.66251C8.69368 6.82099 8.66717 6.97911 8.64066 7.13717C8.63164 7.19096 8.62263 7.24475 8.61363 7.29854C8.60605 7.39376 8.66045 7.4478 8.7491 7.48241C8.79369 7.49989 8.83792 7.51869 8.88217 7.5375C8.97623 7.57748 9.07035 7.61747 9.16795 7.64486C9.59115 7.76357 9.76585 8.08664 9.74642 8.51313C9.74452 8.55703 9.7354 8.60175 9.72149 8.64577C9.72128 8.64577 9.72106 8.64576 9.72085 8.64575C9.62818 8.92053 9.3042 9.16399 9.01148 9.01916C8.89726 8.9627 8.77471 8.92307 8.64778 8.88204C8.58894 8.86302 8.52916 8.84369 8.46884 8.82224C8.46513 8.86173 8.46144 8.89997 8.45784 8.9373C8.44721 9.04759 8.43735 9.14988 8.42994 9.25251C8.41254 9.48469 8.47698 9.58996 8.69743 9.67622C8.77223 9.7058 8.84849 9.73133 8.92483 9.75689C8.9852 9.77709 9.04562 9.79732 9.10541 9.81958ZM7.98538 8.54251C7.83964 8.5288 7.69861 8.51403 7.56214 8.49828C7.6986 8.51401 7.83963 8.52879 7.98538 8.54251Z" fill="#EF7B56"/>
<path fill-rule="evenodd" clip-rule="evenodd" d="M9.24897 9.72998C9.50069 9.8239 9.73014 9.94084 9.86227 10.1998C9.98634 10.4436 9.96117 10.8128 9.78491 11.0157C9.58009 11.2509 9.40829 11.2828 9.07184 11.1552C9.016 11.134 8.96018 11.1127 8.90436 11.0915C8.59922 10.9753 8.29415 10.8592 7.98581 10.752C7.82946 10.6976 7.38087 10.5204 7.25908 10.4309C6.94643 10.2001 6.97306 9.9344 7.01088 9.55712C7.01808 9.48526 7.02569 9.40935 7.03144 9.32887C7.05526 8.99581 7.07926 8.66196 7.10396 8.3287C7.10416 8.32872 7.10435 8.32875 7.10454 8.32878C7.13702 7.8888 7.17028 7.449 7.20433 7.00938C7.20461 7.00281 7.20528 6.99634 7.20595 6.98986L7.20596 6.98986C7.22163 6.78299 7.2381 6.5763 7.25456 6.36962L7.25456 6.36955C7.25865 6.31849 7.26244 6.26726 7.26623 6.21595C7.28633 5.94387 7.30659 5.66972 7.37295 5.4086C7.47959 4.98904 7.93533 4.75308 8.32259 4.85932L8.32376 4.85959C8.67328 4.91648 8.97764 5.2273 8.97957 5.61149C8.98143 5.87935 8.93542 6.14828 8.88968 6.41564C8.8807 6.46813 8.87173 6.52056 8.86314 6.57291C8.83723 6.73139 8.81072 6.88951 8.78422 7.04757C8.7752 7.10136 8.76618 7.15515 8.75719 7.20894C8.7496 7.30416 8.80401 7.3582 8.89266 7.39281C8.93724 7.41029 8.98148 7.42909 9.02572 7.4479C9.11979 7.48788 9.2139 7.52788 9.31151 7.55526C9.7347 7.67397 9.90941 7.99704 9.88998 8.42353C9.88807 8.46743 9.87896 8.51215 9.86505 8.55617C9.86483 8.55617 9.86462 8.55616 9.8644 8.55615C9.77174 8.83093 9.44775 9.07439 9.15504 8.92956C9.04082 8.8731 8.91826 8.83348 8.79133 8.79244C8.73249 8.77342 8.67272 8.75409 8.61239 8.73264C8.60868 8.77213 8.605 8.81038 8.6014 8.84771C8.59076 8.958 8.5809 9.06029 8.5735 9.16291C8.55609 9.39509 8.62054 9.50036 8.84098 9.58662C8.91579 9.6162 8.99205 9.64173 9.06839 9.66729C9.12876 9.68749 9.18918 9.70772 9.24897 9.72998ZM8.12893 8.45291C7.9832 8.4392 7.84217 8.42443 7.70569 8.40868C7.84216 8.42442 7.98319 8.43919 8.12893 8.45291Z" fill="#FFCD37"/>
</svg>
