<svg width="28" height="28" viewBox="0 0 28 28" fill="none" xmlns="http://www.w3.org/2000/svg">
<path d="M14 25.6667C20.4433 25.6667 25.6667 20.4433 25.6667 14C25.6667 7.55668 20.4433 2.33334 14 2.33334C7.55668 2.33334 2.33334 7.55668 2.33334 14C2.33334 20.4433 7.55668 25.6667 14 25.6667Z" stroke="#1D1B49" stroke-width="1.5" stroke-linecap="round" stroke-linejoin="round"/>
<path d="M15.9855 18L13.6175 14.672L13.3455 14.416L10.3535 10.4H12.0975L14.2575 13.36L14.5295 13.584L17.7295 18H15.9855ZM10.2095 18L13.3455 13.776L14.1615 14.832L11.9055 18H10.2095ZM14.6415 14.4L13.8095 13.376L15.9055 10.4H17.5855L14.6415 14.4Z" fill="#CD67CE"/>
</svg>
