<svg width="24" height="24" viewBox="0 0 24 24" fill="none" xmlns="http://www.w3.org/2000/svg">
<path fill-rule="evenodd" clip-rule="evenodd" d="M12 23.5C11.8915 23.5 11.783 23.5 11.6745 23.3915L6.68393 19.9198C4.18865 18.184 2.66978 15.3632 2.66978 12.217V2.34434C2.66978 2.01887 2.88676 1.6934 3.21223 1.6934L11.8915 0.5H12.1085L20.7877 1.6934C21.1132 1.6934 21.3302 2.01887 21.3302 2.34434V12.217C21.3302 15.2547 19.8113 18.184 17.316 19.9198L12.3254 23.3915C12.2169 23.5 12.1085 23.5 12 23.5ZM3.97167 2.88679V12.217C3.97167 14.8208 5.27355 17.316 7.44336 18.8349L12 21.9811L16.5566 18.8349C18.7264 17.316 20.0283 14.8208 20.0283 12.217V2.88679L12 1.80189L3.97167 2.88679ZM16.3113 16.3396H7.2547C6.91507 16.3396 6.57545 16 6.57545 15.6604C6.57545 13.2806 8.25633 11.221 10.4739 10.6257C9.34368 10.107 8.5282 8.95163 8.5282 7.66038C8.5282 5.90784 10.0304 4.40566 11.7829 4.40566C13.5355 4.40566 15.0376 5.90784 15.0376 7.66038C15.0376 8.95161 14.2222 10.1069 13.092 10.6257C15.3096 11.2209 16.9906 13.2806 16.9906 15.6604C16.9906 16 16.6509 16.3396 16.3113 16.3396ZM8.04715 14.9811H15.6321C15.2925 13.1698 13.7075 11.8113 11.8962 11.8113C10.0849 11.8113 8.27357 13.1698 8.04715 14.9811ZM10.0304 7.66038C10.0304 6.65893 10.7815 5.90784 11.7829 5.90784C12.7844 5.90784 13.5355 6.65893 13.5355 7.66038C13.5355 8.66183 12.7844 9.41292 11.7829 9.41292C10.7815 9.41292 10.0304 8.66183 10.0304 7.66038Z" fill="#CD67CE"/>
</svg>
