<svg width="24" height="24" viewBox="0 0 24 24" fill="none" xmlns="http://www.w3.org/2000/svg">
<path fill-rule="evenodd" clip-rule="evenodd" d="M21.68 12C21.68 17.3461 17.3461 21.68 12 21.68C6.65388 21.68 2.32 17.3461 2.32 12C2.32 6.65388 6.65388 2.32 12 2.32C17.3461 2.32 21.68 6.65388 21.68 12ZM23 12C23 18.0751 18.0751 23 12 23C5.92487 23 1 18.0751 1 12C1 5.92487 5.92487 1 12 1C18.0751 1 23 5.92487 23 12ZM8.7 8.7C8.7 9.97988 9.49018 11.1281 10.5962 11.6703C8.27719 12.2219 6.5 14.3473 6.5 16.8113C6.5 17.1557 6.84435 17.5 7.1887 17.5H16.3713C16.7157 17.5 17.06 17.1557 17.06 16.8113C17.06 14.4466 15.4232 12.3937 13.2414 11.7445C14.4317 11.2387 15.3 10.0417 15.3 8.7C15.3 6.92308 13.7769 5.4 12 5.4C10.2231 5.4 8.7 6.92308 8.7 8.7ZM12 6.92308C10.9846 6.92308 10.2231 7.68461 10.2231 8.7C10.2231 9.71538 10.9846 10.4769 12 10.4769C13.0154 10.4769 13.7769 9.71538 13.7769 8.7C13.7769 7.68461 13.0154 6.92308 12 6.92308ZM7.99218 16.1226H15.6826C15.3383 14.2861 13.7313 12.9087 11.8948 12.9087C10.0583 12.9087 8.22174 14.2861 7.99218 16.1226Z" fill="#CD67CE"/>
</svg>
