<svg width="28" height="28" viewBox="0 0 28 28" fill="none" xmlns="http://www.w3.org/2000/svg">
<g clip-path="url(#clip0_657_1360)">
<path fill-rule="evenodd" clip-rule="evenodd" d="M4.46244 6.13867C4.17424 6.48813 3.65744 6.53734 3.30744 6.24914C2.95853 5.96094 2.90877 5.44359 3.19697 5.09414C5.869 1.85664 9.8065 0 13.9999 0C17.4874 0 20.797 1.28516 23.3499 3.57984V2.47516C23.3499 2.0218 23.7168 1.65484 24.1702 1.65484C24.623 1.65484 24.9905 2.0218 24.9905 2.47516V5.61531C24.991 5.85758 24.8789 6.09547 24.6924 6.24914C24.5464 6.36945 24.3588 6.43672 24.1702 6.43672H21.0284C20.5756 6.43672 20.2081 6.06977 20.2081 5.61641C20.2081 5.16359 20.5756 4.79609 21.0284 4.79609H22.2485C19.9959 2.7732 17.0761 1.64063 13.9999 1.64063C10.2981 1.64063 6.82166 3.28016 4.46244 6.13867ZM3.86586 17.6367C4.05836 17.6367 4.25195 17.5695 4.40781 17.4322C4.74797 17.133 4.78078 16.6146 4.48164 16.2745L3.16586 14.7798C4.05398 14.4501 4.68617 13.6188 4.68617 12.6476C4.68617 11.3881 3.62414 10.3633 2.31875 10.3633H0.821406H0.820312C0.3675 10.3633 0 10.7308 0 11.1836V16.8164C0 17.2692 0.3675 17.6367 0.820312 17.6367C1.27312 17.6367 1.64062 17.2692 1.64062 16.8164V15.5296L3.25008 17.3584C3.41195 17.5427 3.63836 17.6367 3.86586 17.6367ZM2.31875 13.2912C2.15797 13.2912 1.90258 13.2918 1.64828 13.2934C1.64721 13.05 1.6456 12.2901 1.64503 12.0179L1.645 12.0039H2.31875C2.7125 12.0039 3.04555 12.2987 3.04555 12.6476C3.04555 12.9965 2.7125 13.2912 2.31875 13.2912ZM9.26406 12.0039C9.71709 12.0039 10.0844 11.6366 10.0844 11.1836C10.0844 10.7306 9.71709 10.3633 9.26406 10.3633H6.89062C6.43759 10.3633 6.07031 10.7306 6.07031 11.1836V16.8164C6.07031 17.2694 6.43759 17.6367 6.89062 17.6367H9.26406C9.71709 17.6367 10.0844 17.2694 10.0844 16.8164C10.0844 16.3634 9.71709 15.9961 9.26406 15.9961H7.71094V14.8203H9.08906C9.54209 14.8203 9.90938 14.453 9.90938 14C9.90938 13.547 9.54209 13.1797 9.08906 13.1797H7.71094V12.0039H9.26406ZM27.1796 10.3633H24.069C23.6156 10.3633 23.2487 10.7308 23.2487 11.1836C23.2487 11.6364 23.6156 12.0039 24.069 12.0039H24.7974V16.8164C24.7974 17.2692 25.1649 17.6367 25.6178 17.6367C26.0711 17.6367 26.4381 17.2692 26.4381 16.8164V12.0039H27.1796C27.6324 12.0039 27.9999 11.6364 27.9999 11.1836C27.9999 10.7308 27.6324 10.3633 27.1796 10.3633ZM21.9399 11.1836C21.9399 11.6364 21.5724 12.0039 21.1196 12.0039H19.5665V13.1797H20.9441C21.3974 13.1797 21.7644 13.5472 21.7644 14C21.7644 14.4528 21.3974 14.8203 20.9441 14.8203H19.5665V15.9961H21.1196C21.5724 15.9961 21.9399 16.3636 21.9399 16.8164C21.9399 17.2692 21.5724 17.6367 21.1196 17.6367H18.7462C18.2928 17.6367 17.9259 17.2692 17.9259 16.8164V11.1836C17.9259 10.7308 18.2928 10.3633 18.7462 10.3633H21.1196C21.5724 10.3633 21.9399 10.7308 21.9399 11.1836ZM14.0433 15.9963C13.52 15.9973 13.008 15.7847 12.6881 15.4309C12.384 15.0951 11.8651 15.0694 11.5298 15.374C11.194 15.678 11.1683 16.197 11.4724 16.5323C12.1074 17.2347 13.0499 17.6373 14.0433 17.6369C15.2869 17.6369 16.3319 16.8391 16.5283 15.7398C16.6765 14.9086 16.3046 13.8241 14.8165 13.2751C14.5256 13.1684 14.244 13.0569 14.0001 12.9579C13.6796 12.8272 13.4253 12.7178 13.3044 12.6648C13.212 12.5827 13.2109 12.475 13.2197 12.4143C13.2306 12.3372 13.2886 12.1474 13.5861 12.0577C13.7272 12.0151 13.8666 12.0008 14.0001 12.0063C14.5666 12.0271 15.0238 12.3908 15.0298 12.3957C15.4717 12.6205 15.9885 12.4624 16.1963 12.0944C16.3593 11.8062 16.315 11.4195 16.0798 11.1351C15.4657 10.5976 14.7274 10.3476 14.0001 10.3531C13.6998 10.3548 13.4007 10.4007 13.113 10.4871C12.2916 10.7343 11.7103 11.3834 11.5954 12.1813C11.4877 12.9322 11.8136 13.6551 12.4458 14.0675C12.4819 14.091 12.5202 14.1118 12.5596 14.1293L12.5606 14.1297C12.6013 14.1478 13.2363 14.4301 14.0001 14.7216C14.0815 14.7522 14.1647 14.7834 14.2483 14.8145C14.4201 14.8774 14.974 15.1098 14.9128 15.4516C14.8663 15.7136 14.5201 15.9963 14.0433 15.9963ZM23.4133 21.8615C23.7015 21.512 24.2188 21.4628 24.5677 21.751C24.9172 22.0392 24.967 22.5565 24.6788 22.906C22.033 26.1118 18.1469 27.9635 13.9999 27.9996C10.4736 28.0316 7.10738 26.7423 4.52586 24.4203V25.525C4.52586 25.9783 4.15891 26.3453 3.70555 26.3453C3.25274 26.3453 2.88523 25.9783 2.88523 25.525V22.3848C2.87703 21.944 3.26477 21.5552 3.70555 21.5634H6.84735C7.30016 21.5634 7.66766 21.9304 7.66766 22.3837C7.66766 22.8365 7.30016 23.204 6.84735 23.204H5.62727C7.9085 25.2543 10.8849 26.3908 13.9999 26.359C17.6552 26.3229 21.0803 24.6882 23.4133 21.8615Z" fill="#1D1B49"/>
</g>
<defs>
<clipPath id="clip0_657_1360">
<rect width="28" height="28" fill="white"/>
</clipPath>
</defs>
</svg>
