<svg width="43" height="43" viewBox="0 0 43 43" fill="none" xmlns="http://www.w3.org/2000/svg">
<path d="M42.6338 19.916L33.7693 1.9811C33.4773 1.38464 33.0233 0.882471 32.4591 0.532086C31.895 0.181701 31.2436 -0.00273272 30.5796 -9.41509e-05H15.9999C15.2315 0.00101664 14.495 0.306729 13.9517 0.850025C13.4084 1.39332 13.1027 2.12987 13.1016 2.89821V4.77778H2.80508C2.43626 4.77767 2.07104 4.85031 1.73033 4.99156C1.38962 5.1328 1.08013 5.33987 0.819564 5.6009C0.559 5.86193 0.352489 6.1718 0.211856 6.51276C0.0712239 6.85372 -0.000767069 7.21907 6.1632e-06 7.58789L0.0361194 21.662L0.0713929 35.4245C0.0740569 36.1668 0.370571 36.8778 0.896084 37.4021C1.4216 37.9263 2.13334 38.2211 2.87563 38.222H13.1016V40.1016C13.1027 40.8699 13.4084 41.6065 13.9517 42.1498C14.495 42.6931 15.2315 42.9988 15.9999 42.9999H30.5796C31.243 42.9982 31.8929 42.8119 32.4566 42.4619C33.0202 42.1118 33.4753 41.6118 33.771 41.0179L42.6338 23.0671C42.8746 22.5767 42.9998 22.0378 42.9998 21.4915C42.9998 20.9453 42.8746 20.4063 42.6338 19.916ZM2.87563 37.032C2.44804 37.0326 2.03767 36.8635 1.73468 36.5618C1.4317 36.2601 1.26088 35.8504 1.25977 35.4228L1.22534 21.6586L1.19006 7.58537C1.18962 7.37304 1.23108 7.16271 1.31205 6.96643C1.39303 6.77014 1.51193 6.59177 1.66195 6.44151C1.81198 6.29125 1.99017 6.17207 2.18633 6.09079C2.38249 6.00951 2.59275 5.96772 2.80508 5.96784H27.567C27.9047 5.96775 28.2356 6.06208 28.5225 6.24017C28.8094 6.41825 29.0407 6.673 29.1905 6.97565L35.9697 20.6911C36.118 20.9911 36.18 21.3263 36.1486 21.6595C36.1297 21.8809 36.0696 22.0968 35.9714 22.2961L29.1905 36.0292C29.0406 36.3317 28.8092 36.5864 28.5224 36.7644C28.2355 36.9425 27.9046 37.0369 27.567 37.037L2.87563 37.032ZM41.5672 22.5396L32.701 40.4913C32.5058 40.8872 32.2036 41.2206 31.8286 41.4536C31.4537 41.6866 31.021 41.81 30.5796 41.8098H15.9999C15.5467 41.8098 15.1122 41.6299 14.7917 41.3096C14.4712 40.9892 14.291 40.5547 14.2908 40.1016V38.2078H27.567C28.1243 38.2096 28.6708 38.0548 29.1442 37.7609C29.6177 37.467 29.9989 37.0459 30.2445 36.5457L37.0262 22.8143C37.2285 22.4028 37.3336 21.9504 37.3336 21.4919C37.3336 21.0334 37.2285 20.5811 37.0262 20.1696L30.2436 6.45327C29.9983 5.95314 29.6171 5.53214 29.1438 5.23838C28.6705 4.94462 28.1241 4.78995 27.567 4.79205H14.2908V2.89821C14.291 2.44508 14.4712 2.01058 14.7917 1.69025C15.1122 1.36991 15.5467 1.18996 15.9999 1.18996H30.5796C31.0212 1.19003 31.454 1.31353 31.8291 1.54652C32.2043 1.7795 32.5068 2.1127 32.7027 2.50852L41.5672 20.4434C41.7284 20.7693 41.8123 21.1279 41.8123 21.4915C41.8123 21.8551 41.7284 22.2137 41.5672 22.5396Z" fill="#CD67CE"/>
</svg>
