<svg width="20" height="20" viewBox="0 0 20 20" fill="none" xmlns="http://www.w3.org/2000/svg">
<path d="M18.4375 10.8747H15.9937C13.5166 10.9322 13.5196 14.6961 15.9938 14.7528H18.4375C18.5203 14.7525 18.5996 14.7195 18.6582 14.661C18.7167 14.6024 18.7498 14.5231 18.75 14.4403V11.1872C18.7501 11.1461 18.7422 11.1054 18.7265 11.0674C18.7108 11.0294 18.6878 10.9949 18.6588 10.9659C18.6297 10.9368 18.5952 10.9138 18.5573 10.8982C18.5193 10.8825 18.4786 10.8745 18.4375 10.8747ZM16.45 13.1247C16.3671 13.1247 16.2876 13.0917 16.229 13.0331C16.1704 12.9745 16.1375 12.895 16.1375 12.8122C16.1375 12.7293 16.1704 12.6498 16.229 12.5912C16.2877 12.5326 16.3671 12.4997 16.45 12.4997C16.5329 12.4997 16.6124 12.5326 16.671 12.5912C16.7296 12.6498 16.7625 12.7293 16.7625 12.8122C16.7625 12.8951 16.7296 12.9746 16.671 13.0332C16.6124 13.0918 16.5329 13.1247 16.45 13.1247ZM15.9937 15.3778H18.1438V16.1309C18.1429 16.7531 17.8954 17.3496 17.4555 17.7895C17.0155 18.2295 16.4191 18.477 15.7969 18.4778H3.59688C2.97469 18.477 2.37823 18.2295 1.93828 17.7895C1.49833 17.3496 1.25081 16.7531 1.25 16.1309V5.83404C1.25045 5.32032 1.45472 4.82777 1.81798 4.46452C2.18123 4.10127 2.67378 3.897 3.1875 3.89656H7.6375L6.4125 4.52156H3.1875C2.92855 4.52463 2.67622 4.60378 2.46191 4.74916C2.24759 4.89454 2.08077 5.09973 1.98218 5.3392C1.8836 5.57867 1.85762 5.84184 1.90746 6.09597C1.95731 6.3501 2.08079 6.58395 2.26253 6.76844C2.51073 7.00916 2.84176 7.1456 3.1875 7.14969H15.7969C16.4183 7.1518 17.0137 7.39984 17.4529 7.83959C17.8921 8.27935 18.1393 8.87507 18.1406 9.49656L18.1406 10.2497H15.9937C15.6541 10.251 15.3183 10.3216 15.0068 10.4572C14.6954 10.5928 14.415 10.7906 14.1827 11.0384C13.9504 11.2862 13.7711 11.5788 13.6559 11.8983C13.5406 12.2178 13.4919 12.5575 13.5125 12.8966C13.513 13.5545 13.7746 14.1853 14.2398 14.6505C14.705 15.1157 15.3358 15.3773 15.9937 15.3778ZM3.85625 6.52469C5.36281 5.76194 7.6648 4.58198 9.14688 3.82781L13.6063 1.55594C13.68 1.51872 13.7656 1.5123 13.8441 1.53808C13.9226 1.56385 13.9876 1.61973 14.025 1.69344L16.5375 6.62156C16.0332 6.52475 15.5187 6.4922 15.0063 6.52469L13.45 3.46531C13.4118 3.39163 13.3459 3.3361 13.2668 3.31091C13.1878 3.28572 13.1019 3.29292 13.0281 3.33094L6.7625 6.52469H3.85625ZM13.0344 4.02781L14.3062 6.52469H8.13438L13.0344 4.02781Z" fill="url(#paint0_linear_686_2601)"/>
<defs>
<linearGradient id="paint0_linear_686_2601" x1="1.25" y1="10" x2="18.75" y2="10" gradientUnits="userSpaceOnUse">
<stop stop-color="#2A275B"/>
<stop offset="1" stop-color="#CD67CE" stop-opacity="0.51"/>
</linearGradient>
</defs>
</svg>
